<?xml version="1.0" encoding="UTF-8"?>
<svg width="211px" height="82px" viewBox="0 0 211 82" version="1.1" xmlns="http://www.w3.org/2000/svg" xmlns:xlink="http://www.w3.org/1999/xlink">
    <!-- Generator: Sketch 60.1 (88133) - https://sketch.com -->
    <title>huffingtonPost</title>
    <desc>Created with Sketch.</desc>
    <g id="Page-1" stroke="none" stroke-width="1" fill="none" fill-rule="evenodd">
        <g id="huffingtonPost" fill="#FFFFFF" fill-rule="nonzero">
            <path d="M84.0527144,16.1387898 C84.0527144,19.182024 84.109686,19.6183498 85.7916741,19.7619507 L86.7191193,19.8503205 C86.8920952,19.9663794 86.8349763,20.4873193 86.6602339,20.573848 C85.0096023,20.5167022 84.0232717,20.4872456 82.8639652,20.4872456 C81.7046587,20.4872456 80.6907256,20.5167022 78.8358352,20.573848 C78.6628594,20.4872456 78.6039739,19.9939214 78.8358352,19.8503205 L79.8792111,19.7619507 C81.5316828,19.6183498 81.6770562,19.182024 81.6770562,16.1387898 L81.6770562,3.17973032 C81.6770562,2.28130425 81.6770562,2.25184766 80.8066562,2.25184766 L79.2130699,2.25184766 C77.9672755,2.25184766 76.3736891,2.30884617 75.6486625,2.97721624 C74.9530786,3.61421505 74.6641721,4.25121386 74.3458229,4.97658244 C74.1139616,5.15148096 73.7072842,5.00603903 73.5913536,4.77406837 C74.0550762,3.47061416 74.489356,1.61484886 74.6936148,0.454995538 C74.7801027,0.396082353 75.1554972,0.368540439 75.2438253,0.454995538 C75.4168012,1.38287819 76.3736891,1.3534216 77.7059715,1.3534216 L89.4425694,1.3534216 C91.0067131,1.3534216 91.2680171,1.29450842 91.7022969,0.541524277 C91.8475967,0.482611093 92.1660195,0.512067685 92.2249049,0.628126658 C91.9047155,1.81743657 91.7022969,4.16475876 91.7887849,5.03556927 C91.6746944,5.26753993 91.1815291,5.26753993 91.0361558,5.09256777 C90.9495942,4.36904023 90.7472492,3.29571565 90.3111292,2.97721624 C89.644988,2.48381833 88.5445669,2.25184766 86.9509806,2.25184766 L84.8936716,2.25184766 C84.0232717,2.25184766 84.0527144,2.28130425 84.0527144,3.23680246 L84.0527144,16.1387898 Z" id="path3321"></path>
            <path d="M102.552125,11.1232453 C101.160957,11.1232453 101.102072,11.1821585 101.102072,12.051128 L101.102072,16.1382302 C101.102072,19.1833054 101.247371,19.5883335 102.870474,19.763232 L103.711431,19.8496871 C103.884407,19.9657461 103.827288,20.486686 103.652546,20.5750557 C102.088402,20.5161425 101.102072,20.486686 99.9722078,20.486686 C98.7264134,20.486686 97.741923,20.5455991 96.6120592,20.5750557 C96.4372432,20.486686 96.3801979,20.0245857 96.5531738,19.8496871 L97.0463391,19.763232 C98.6693682,19.4723482 98.7264134,19.1833054 98.7264134,16.1382302 L98.7264134,5.70139135 C98.7264134,2.65815717 98.5239948,2.16475925 97.0168964,2.04877392 L96.2642673,1.99177541 C96.0894512,1.87586372 96.1484103,1.35293557 96.3213861,1.26640683 C97.7419966,1.29586342 98.726487,1.35300921 99.9722815,1.35300921 C101.102145,1.35300921 102.088476,1.32355262 103.33427,1.26640683 C103.509086,1.35300921 103.566132,1.87579008 103.393156,1.99177541 L102.841105,2.04877392 C101.161031,2.22367243 101.102145,2.65815717 101.102145,5.70139135 L101.102145,9.03550938 C101.102145,9.93393544 101.161031,9.96339203 102.552198,9.96339203 L110.84032,9.96339203 C112.229647,9.96339203 112.288533,9.93393544 112.288533,9.03550938 L112.288533,5.70139135 C112.288533,2.65815717 112.229647,2.22367243 110.52013,2.04877392 L109.96992,1.99177541 C109.796944,1.87586372 109.854063,1.35293557 110.028805,1.26640683 C111.361087,1.32355262 112.347418,1.35300921 113.534327,1.35300921 C114.664191,1.35300921 115.650521,1.32355262 116.953361,1.26640683 C117.128177,1.35300921 117.185222,1.87579008 117.012246,1.99177541 L116.403151,2.04877392 C114.723076,2.22367243 114.664191,2.65815717 114.664191,5.70139135 L114.664191,16.1382302 C114.664191,19.1833054 114.723076,19.5588769 116.403151,19.763232 L117.098734,19.8496871 C117.27355,19.9657461 117.214591,20.486686 117.041763,20.5750557 C115.650595,20.5161425 114.664264,20.486686 113.534401,20.486686 C112.347492,20.486686 111.304116,20.5161425 110.028879,20.5750557 C109.854063,20.486686 109.797017,20.0245857 109.969993,19.8496871 L110.520204,19.763232 C112.288606,19.4723482 112.288606,19.1833054 112.288606,16.1382302 L112.288606,12.051128 C112.288606,11.1821585 112.229721,11.1232453 110.840393,11.1232453 L102.552272,11.1232453 L102.552125,11.1232453 Z" id="path3325"></path>
            <path d="M124.359217,5.70195102 C124.359217,2.6863324 124.300332,2.25184766 122.590815,2.04933359 L122.127092,1.99042041 C121.954116,1.87436143 122.013001,1.3534216 122.185977,1.26689286 C123.431772,1.32389137 124.416262,1.35349524 125.605011,1.35349524 L131.053752,1.35349524 C132.906802,1.35349524 134.618159,1.35349524 134.965951,1.26689286 C135.138927,1.75844974 135.313743,3.84618571 135.427834,5.12202436 C135.313743,5.29692288 134.85002,5.35399503 134.704647,5.18093755 C134.270367,3.81672912 134.009063,2.80231773 132.501965,2.42490514 C131.892869,2.28130425 130.965424,2.25184766 129.692027,2.25184766 L127.605275,2.25184766 C126.734875,2.25184766 126.734875,2.30884617 126.734875,3.41170098 L126.734875,9.20912653 C126.734875,10.0210239 126.823203,10.0210239 127.691763,10.0210239 L129.371837,10.0210239 C130.590029,10.0210239 131.488032,9.96402535 131.835824,9.84796638 C132.183616,9.7319074 132.386034,9.55708253 132.531407,8.83355498 L132.763269,7.64424507 C132.906802,7.47118759 133.399967,7.47118759 133.515898,7.67370166 C133.515898,8.36961365 133.399894,9.50001038 133.399894,10.6009505 C133.399894,11.6448185 133.515898,12.7475997 133.515898,13.3845985 C133.399894,13.5871125 132.906802,13.5871125 132.763269,13.4140551 L132.501965,12.2836583 C132.385961,11.7608038 132.183616,11.3263191 131.603962,11.1808772 C131.197285,11.0648182 130.501701,11.0353616 129.371837,11.0353616 L127.691763,11.0353616 C126.823203,11.0353616 126.734875,11.0648182 126.734875,11.8196434 L126.734875,15.9067455 C126.734875,17.4440114 126.823203,18.4289662 127.286926,18.9223642 C127.632878,19.2703202 128.241974,19.5888196 130.792448,19.5888196 C133.022733,19.5888196 133.86369,19.4729079 134.502228,19.1543348 C135.022996,18.863451 135.805068,17.8490396 136.559537,16.3412303 C136.761956,16.1976294 137.168633,16.2842318 137.284564,16.5437443 C137.080305,17.5599968 136.355279,19.7913336 135.978044,20.5737744 C133.370525,20.5166286 130.792448,20.487172 128.212531,20.487172 L125.605011,20.487172 C124.359217,20.487172 123.374727,20.5166286 121.665209,20.5737744 C121.490393,20.487172 121.431508,20.0233043 121.606324,19.8502468 L122.563212,19.761877 C124.213844,19.6182762 124.359217,19.1819504 124.359217,16.1387162 L124.359217,5.70187738 L124.359217,5.70195102 Z" id="path3329"></path>
            <path d="M7.0929821,41.5694023 C5.70181433,41.5694023 5.64476909,41.6264008 5.64476909,42.497285 L5.64476909,46.5843871 C5.64476909,49.6294623 5.78830227,50.0344905 7.41133133,50.209389 L8.25228857,50.2959914 C8.42526446,50.4119031 8.36821922,50.9329902 8.19340316,51.02136 C6.62925951,50.9624468 5.64476909,50.9329902 4.51306515,50.9329902 C3.26727073,50.9329902 2.28278031,50.9919034 1.15291654,51.02136 C0.978100482,50.9329902 0.921055243,50.4708899 1.09403113,50.2959914 L1.58719642,50.209389 C3.21022549,49.9185052 3.26727073,49.6294623 3.26727073,46.5843871 L3.26727073,36.1475483 C3.26727073,33.1043141 3.06485214,32.6109162 1.55775372,32.4949309 L0.805124595,32.4379324 C0.630308539,32.3218734 0.689193948,31.7990925 0.862169834,31.7125638 C2.28278031,31.7420204 3.26727073,31.7990189 4.51306515,31.7990189 C5.64476909,31.7990189 6.62925951,31.7695623 7.87505392,31.7125638 C8.04986998,31.7990189 8.10691522,32.321947 7.93393933,32.4379324 L7.38188863,32.4949309 C5.70181433,32.6698294 5.64476909,33.1043141 5.64476909,36.1475483 L5.64476909,39.4816663 C5.64476909,40.3800924 5.70181433,40.409549 7.0929821,40.409549 L15.3811033,40.409549 C16.7704309,40.409549 16.8293163,40.3800924 16.8293163,39.4816663 L16.8293163,36.1475483 C16.8293163,33.1043141 16.7704309,32.6698294 15.0627541,32.4949309 L14.5107034,32.4379324 C14.3377275,32.3218734 14.3947727,31.7990925 14.5695888,31.7125638 C15.9018711,31.7695623 16.8882017,31.7990189 18.0751107,31.7990189 C19.2049745,31.7990189 20.1913051,31.7695623 21.4941448,31.7125638 C21.6689608,31.7990189 21.726006,32.321947 21.5530302,32.4379324 L20.9439342,32.4949309 C19.2638599,32.6698294 19.2049745,33.1043141 19.2049745,36.1475483 L19.2049745,46.5843871 C19.2049745,49.6294623 19.2638599,50.0050339 20.9439342,50.209389 L21.6395181,50.2959914 C21.8143342,50.4119031 21.7554488,50.9329902 21.5824729,51.02136 C20.1913051,50.9624468 19.2049745,50.9329902 18.0751107,50.9329902 C16.8882017,50.9329902 15.8448259,50.9624468 14.5695888,51.02136 C14.3947727,50.9329902 14.3377275,50.4708899 14.5107034,50.2959914 L15.0627541,50.209389 C16.8293163,49.9185052 16.8293163,49.6294623 16.8293163,46.5843871 L16.8293163,42.497285 C16.8293163,41.6264745 16.7704309,41.5694023 15.3811033,41.5694023 L7.0929821,41.5694023 Z" id="path3333"></path>
            <path d="M42.6467035,39.0760932 C42.6467035,37.2792411 42.5878181,33.9451231 42.096493,33.0743126 C41.8940744,32.7263566 41.3714664,32.5238425 40.6482799,32.4667704 L39.9232534,32.4078572 C39.7484373,32.2053431 39.8073227,31.8279305 39.9802986,31.7119452 C41.0825598,31.7708584 42.1535382,31.800315 43.283402,31.800315 C44.5015938,31.800315 45.2836657,31.7708584 46.3270415,31.7119452 C46.5589028,31.8573135 46.5294601,32.2347997 46.3840867,32.4078572 L45.6885029,32.4667704 C44.9653164,32.5239162 44.4151059,32.7852698 44.2402898,33.1626824 C43.8354527,34.1181806 43.8354527,37.4522986 43.8354527,39.0760932 L43.8354527,42.3531391 C43.8354527,44.8753598 43.4287753,47.5411814 41.8057463,49.2809614 C40.5599518,50.6433288 38.4161549,51.398154 36.272358,51.398154 C34.2720943,51.398154 32.2736708,51.0207414 30.8530603,49.8038159 C29.3165192,48.5279773 28.5933328,46.4107847 28.5933328,42.9606813 L28.5933328,36.1193878 C28.5933328,33.1037692 28.5344474,32.6122123 26.8543731,32.4667704 L26.1293465,32.4078572 C25.9545304,32.2917982 26.0134158,31.800315 26.1882319,31.7119452 C27.6364449,31.7708584 28.6209353,31.800315 29.7802418,31.800315 C30.968991,31.800315 31.9258788,31.7708584 33.3446492,31.7119452 C33.5194652,31.800315 33.5765104,32.2918719 33.4035346,32.4078572 L32.7079507,32.4667704 C31.0260362,32.6122859 30.968991,33.1037692 30.968991,36.1193878 L30.968991,42.3807547 C30.968991,47.0496245 32.417204,50.1223153 36.8520113,50.1223153 C41.0531171,50.1223153 42.6467035,46.8176539 42.6467035,42.4102113 L42.6467035,39.0760932 Z" id="path3337"></path>
            <path d="M55.2901367,39.9750643 C55.2901367,40.757505 55.3766247,40.757505 56.2470246,40.757505 L58.2178456,40.757505 C59.4047546,40.757505 60.3321998,40.7005065 60.6799917,40.5844475 C60.998341,40.4683885 61.2302023,40.3230203 61.4050183,39.5681951 L61.6663223,38.4083418 C61.8098555,38.2352843 62.3030208,38.2352843 62.4189514,38.4083418 C62.4189514,39.1042537 62.3030208,40.2641071 62.3030208,41.3374316 C62.3030208,42.3812996 62.4189514,43.4822398 62.4189514,44.1505362 C62.3030208,44.3235937 61.8687409,44.3235937 61.6663223,44.1505362 L61.3755756,43.0182984 C61.2302023,42.497285 60.998341,42.0904158 60.4481304,41.9173583 C60.0432933,41.8012993 59.3182667,41.77199 58.2178456,41.77199 L56.2470246,41.77199 C55.3766247,41.77199 55.2901367,41.8014466 55.2901367,42.5562718 L55.2901367,46.5844608 C55.2901367,49.629536 55.3490221,50.0640207 57.0585391,50.2094626 L58.0430295,50.296065 C58.2178456,50.4119767 58.1589602,50.9330638 57.9859843,51.0214336 C56.2746271,50.9625204 55.2901367,50.9330638 54.1308302,50.9330638 C52.8555931,50.9330638 51.8711027,50.9625204 50.5093776,51.0214336 C50.3345616,50.9330638 50.2775163,50.4709635 50.4504922,50.296065 L51.1755188,50.2094626 C52.8555931,50.0051075 52.9144785,49.629536 52.9144785,46.5844608 L52.9144785,36.1476219 C52.9144785,33.1043878 52.8555931,32.6975186 51.1755188,32.4950045 L50.7117962,32.438006 C50.5388203,32.321947 50.5958656,31.7991662 50.7688415,31.7126374 C51.9870333,31.7696359 52.9715238,31.7990925 54.1308302,31.7990925 L59.46364,31.7990925 C61.3185304,31.7990925 62.9986047,31.7990925 63.3758393,31.7126374 C63.3758393,33.0455482 63.4034419,34.4373722 63.4623273,35.5401534 C63.3758393,35.7132109 62.969162,35.7997396 62.7667434,35.6266085 C62.5348821,34.3213132 62.1870902,33.2498297 60.7388771,32.8724171 C60.1003385,32.6974449 59.1434506,32.6974449 57.9270989,32.6974449 L56.1605367,32.6974449 C55.2901367,32.6974449 55.2901367,32.7563581 55.2901367,33.8572983 L55.2901367,39.9750643 Z" id="path3341"></path>
            <path d="M72.6999757,39.9750643 C72.6999757,40.757505 72.7864636,40.757505 73.6568636,40.757505 L75.6276846,40.757505 C76.8145936,40.757505 77.7420388,40.7005065 78.0898307,40.5844475 C78.40818,40.4683885 78.6400413,40.3230203 78.8148573,39.5681951 L79.0761613,38.4083418 C79.2196945,38.2352843 79.7128598,38.2352843 79.8287904,38.4083418 C79.8287904,39.1042537 79.7128598,40.2641071 79.7128598,41.3374316 C79.7128598,42.3812996 79.8287904,43.4822398 79.8287904,44.1505362 C79.7128598,44.3235937 79.2785799,44.3235937 79.0761613,44.1505362 L78.7854146,43.0182984 C78.6400413,42.497285 78.40818,42.0904158 77.8579694,41.9173583 C77.4531322,41.8012993 76.7281057,41.77199 75.6276846,41.77199 L73.6568636,41.77199 C72.7864636,41.77199 72.6999757,41.8014466 72.6999757,42.5562718 L72.6999757,46.5844608 C72.6999757,49.629536 72.7588611,50.0640207 74.4683781,50.2094626 L75.4528685,50.296065 C75.6276846,50.4119767 75.5687992,50.9330638 75.3958233,51.0214336 C73.6844661,50.9625204 72.6999757,50.9330638 71.5406692,50.9330638 C70.2654321,50.9330638 69.2809417,50.9625204 67.9192166,51.0214336 C67.7444006,50.9330638 67.6873553,50.4709635 67.8603312,50.296065 L68.5853578,50.2094626 C70.2654321,50.0051075 70.3243175,49.629536 70.3243175,46.5844608 L70.3243175,36.1476219 C70.3243175,33.1043878 70.2654321,32.6975186 68.5853578,32.4950045 L68.1216352,32.438006 C67.9486593,32.321947 68.0057046,31.7991662 68.1786804,31.7126374 C69.3968723,31.7696359 70.3813627,31.7990925 71.5406692,31.7990925 L76.873479,31.7990925 C78.7283694,31.7990925 80.4084437,31.7990925 80.7856783,31.7126374 C80.7856783,33.0455482 80.8132809,34.4373722 80.8721663,35.5401534 C80.7856783,35.7132109 80.379001,35.7997396 80.1765824,35.6266085 C79.9447211,34.3213132 79.5969291,33.2498297 78.1487161,32.8724171 C77.5101775,32.6975186 76.5532896,32.6975186 75.3369379,32.6975186 L73.5685355,32.6975186 C72.6999757,32.6975186 72.6999757,32.7564318 72.6999757,33.8573719 L72.6999757,39.9751379 L72.6999757,39.9750643 Z" id="path3345"></path>
            <path d="M87.8867139,36.20627 C87.8867139,33.1335792 87.8278285,32.6401813 86.1183114,32.4947394 L85.395125,32.4377409 C85.220309,32.3216819 85.279268,31.7989011 85.4520967,31.7123723 C86.9021498,31.7712855 87.8866403,31.7988274 89.102992,31.7988274 C90.2622984,31.7988274 91.248629,31.7712855 92.696842,31.7123723 C92.8716581,31.7988274 92.9287033,32.3217556 92.7539609,32.4377409 L92.0307745,32.4947394 C90.3212575,32.6401077 90.2623721,33.1335792 90.2623721,36.20627 L90.2623721,46.5271235 C90.2623721,49.5998143 90.3212575,50.0048424 92.0307745,50.2091975 L92.7539609,50.2957999 C92.9287769,50.4118589 92.8717317,50.9346398 92.696842,51.0211685 C91.248629,50.9622553 90.2622984,50.9345661 89.102992,50.9345661 C87.8866403,50.9345661 86.9021498,50.9622553 85.4520967,51.0211685 C85.2791208,50.9345661 85.2202354,50.4706984 85.395125,50.2957999 L86.1183114,50.2091975 C87.8278285,50.0048424 87.8867139,49.5998143 87.8867139,46.5271235 L87.8867139,36.20627 Z" id="path3349"></path>
            <path d="M115.652465,46.0051969 C115.652465,46.8760074 115.652465,50.3242697 115.738879,51.0790949 C115.681907,51.2521524 115.507018,51.3975943 115.188668,51.3975943 C114.840876,50.9041964 113.999919,49.889785 111.478888,47.0196083 L104.75675,39.3664174 C103.974678,38.4679914 102.003857,36.0893715 101.394762,35.4523727 L101.337643,35.4523727 C101.221786,35.8003287 101.192343,36.4667841 101.192343,37.3375946 L101.192343,43.6578747 C101.192343,45.0202421 101.221786,48.7888448 101.713111,49.6578143 C101.887927,49.9781548 102.46758,50.1512122 103.192607,50.2082844 L104.090609,50.2966542 C104.263585,50.5286248 104.235909,50.8765808 104.031724,51.0201817 C102.728884,50.9631832 101.713111,50.9337266 100.642132,50.9337266 C99.4239405,50.9337266 98.6418687,50.9631832 97.6279356,51.0201817 C97.425517,50.8765808 97.3960743,50.4697116 97.5709639,50.2966542 L98.3530358,50.2082844 C99.019177,50.121682 99.4828995,49.9486982 99.6282729,49.6283577 C100.03311,48.5863308 100.003667,45.0496987 100.003667,43.6578747 L100.003667,35.2774742 C100.003667,34.4674179 99.9742247,33.8580347 99.3669689,33.1915793 C98.9602915,32.7847101 98.2665478,32.582196 97.5709639,32.4956673 L97.0777987,32.4367541 C96.9029826,32.2636966 96.9029826,31.8292119 97.1349175,31.7132266 C98.3531094,31.7996817 99.8878103,31.7996817 100.410418,31.7996817 C100.874141,31.7996817 101.367306,31.7702251 101.742701,31.7132266 C102.322354,33.1915793 105.741388,37.0190952 106.698276,38.0905788 L109.508214,41.2516393 C111.508478,43.4829762 112.929088,45.1067708 114.290813,46.4985948 L114.347932,46.4985948 C114.463789,46.3532265 114.463789,45.8892116 114.463789,45.2798283 L114.463789,39.0755336 C114.463789,37.7131662 114.434346,33.9445634 113.884136,33.0755939 C113.71116,32.8141667 113.247437,32.6411092 112.088131,32.4956673 L111.594966,32.4367541 C111.392547,32.2636966 111.42199,31.7997553 111.653851,31.7132266 C112.986133,31.7702251 113.972464,31.7996817 115.072885,31.7996817 C116.318679,31.7996817 117.073149,31.7702251 118.057639,31.7132266 C118.2895,31.8568274 118.2895,32.2636966 118.116525,32.4367541 L117.709847,32.4956673 C116.782402,32.6410356 116.202749,32.8712388 116.086818,33.1050505 C115.593653,34.1470775 115.652538,37.7426228 115.652538,39.0755336 L115.652538,46.0051969 L115.652465,46.0051969 Z" id="path3353"></path>
            <path d="M139.160432,47.9767561 C139.160432,49.1366094 139.335248,49.8325214 139.856016,50.0350354 C139.942578,50.1216378 139.942578,50.2964627 139.826574,50.3829914 C139.478782,50.3829914 138.958014,50.4990504 138.405963,50.6425777 C136.871262,51.0494468 134.78451,51.3974028 133.218527,51.3974028 C129.77189,51.3974028 126.61232,50.4419046 124.380195,48.1792701 C122.643075,46.4394902 121.71563,44.1492401 121.71563,41.5975628 C121.71563,39.1342553 122.527145,36.6414912 124.32315,34.7268127 C126.264528,32.6979899 129.133351,31.3356225 133.509273,31.3356225 C135.161745,31.3356225 136.696446,31.6541219 137.189611,31.7701072 C137.739822,31.8861662 138.637824,32.0886066 138.985616,32.0315345 C138.985616,32.9888737 139.160432,34.4966831 139.421736,36.234622 C139.335322,36.4665927 138.81264,36.4960492 138.637824,36.3229918 C137.82815,33.1913878 135.65307,32.204592 132.697759,32.204592 C127.076042,32.204592 124.612056,36.2070064 124.612056,40.5555359 C124.612056,46.1209907 127.48088,50.4989768 133.306855,50.4989768 C135.10286,50.4989768 136.175678,50.1215642 136.494027,49.6281663 C136.637561,49.4256522 136.784774,48.9046387 136.784774,47.9767561 L136.784774,46.8169027 C136.784774,44.3812108 136.696446,44.2081533 134.900441,44.0037982 L133.625204,43.8601973 C133.393343,43.7441383 133.422785,43.2213575 133.625204,43.1348287 C134.466161,43.1937419 136.059748,43.2214311 137.769265,43.2214311 C138.899128,43.2214311 139.885459,43.1937419 140.840507,43.1348287 C141.044765,43.2508877 141.072368,43.6852988 140.869949,43.8601973 L140.406227,43.9171958 C139.188035,44.0625641 139.160432,44.8745351 139.160432,46.3528878 L139.160432,47.9766824 L139.160432,47.9767561 Z" id="path3357"></path>
            <path d="M154.483902,46.5849321 C154.483902,49.6281663 154.542788,50.064492 156.222862,50.2080929 L157.150307,50.2964627 C157.323283,50.4125217 157.266164,50.9334615 157.091422,51.0199902 C155.44079,50.9629917 154.4563,50.9335351 153.295153,50.9335351 C152.137687,50.9335351 151.123754,50.9629917 149.267023,51.0199902 C149.094047,50.9335351 149.037002,50.4400636 149.267023,50.2964627 L150.312239,50.2080929 C151.962871,50.064492 152.108244,49.6281663 152.108244,46.5849321 L152.108244,33.6258725 C152.108244,32.7274465 152.108244,32.6979899 151.239684,32.6979899 L149.644258,32.6979899 C148.398463,32.6979899 146.804877,32.7549884 146.079851,33.4233585 C145.384267,34.0603573 145.09536,34.6991971 144.777011,35.4227247 C144.54515,35.5976232 144.138472,35.4521813 144.022542,35.2202106 C144.488104,33.9167564 144.922384,32.0609911 145.124803,30.9011378 C145.211217,30.8422246 145.588525,30.8145354 145.675013,30.9011378 C145.847989,31.8290204 146.804877,31.7995638 148.139,31.7995638 L159.873757,31.7995638 C161.437901,31.7995638 161.699205,31.7406506 162.133485,30.9876665 C162.278785,30.9287533 162.597208,30.9582099 162.656093,31.0742689 C162.335904,32.2635788 162.133485,34.610901 162.219973,35.4817115 C162.105882,35.7136822 161.612717,35.7136822 161.467344,35.53871 C161.380782,34.8151825 161.178437,33.7418579 160.742317,33.4233585 C160.076176,32.9299606 158.975755,32.6979899 157.382169,32.6979899 L155.32486,32.6979899 C154.4563,32.6979899 154.483902,32.7274465 154.483902,33.6829447 L154.483902,46.5849321 Z" id="path3361"></path>
            <path d="M165.67506,41.5694023 C165.67506,35.7719768 170.021539,31.3350776 175.991047,31.3350776 C182.685582,31.3350776 186.04573,36.1770049 186.04573,41.2803595 C186.04573,47.1348572 181.585161,51.3968579 175.991047,51.3968579 C169.557816,51.3968579 165.67506,46.7887422 165.67506,41.5694023 M183.149304,42.1787856 C183.149304,37.3939304 181.03311,32.2335036 175.497882,32.2335036 C172.485525,32.2335036 168.573326,34.291783 168.573326,40.6415197 C168.573326,44.9329769 170.660077,50.4984318 176.368282,50.4984318 C179.844361,50.4984318 183.149304,47.8896824 183.149304,42.1787856" id="path3365"></path>
            <path d="M208.013491,46.0051969 C208.013491,46.8760074 208.013491,50.3242697 208.099906,51.0790949 C208.042934,51.2521524 207.868044,51.3975943 207.549695,51.3975943 C207.201903,50.9041964 206.360946,49.889785 203.839914,47.0196083 L197.117851,39.3664174 C196.335779,38.4679914 194.364958,36.0893715 193.755862,35.4523727 L193.698743,35.4523727 C193.582886,35.8003287 193.553443,36.4667841 193.553443,37.3375946 L193.553443,43.6578747 C193.553443,45.0202421 193.582886,48.7888448 194.074211,49.6578143 C194.249027,49.9781548 194.82868,50.1512122 195.553707,50.2082844 L196.45171,50.2966542 C196.624685,50.5286248 196.595243,50.8765808 196.392824,51.0201817 C195.089984,50.9631832 194.074211,50.9337266 193.003233,50.9337266 C191.785041,50.9337266 191.002969,50.9631832 189.989036,51.0201817 C189.786617,50.8765808 189.757175,50.4697116 189.932064,50.2966542 L190.714136,50.2082844 C191.380277,50.121682 191.844,49.9486982 191.989373,49.6283577 C192.39421,48.5863308 192.364768,45.0496987 192.364768,43.6578747 L192.364768,35.2774742 C192.364768,34.4674179 192.337239,33.8580347 191.728069,33.1915793 C191.321392,32.7847101 190.627648,32.582196 189.932064,32.4956673 L189.438899,32.4367541 C189.264083,32.2636966 189.264083,31.8292119 189.495871,31.7132266 C190.714063,31.7996817 192.248764,31.7996817 192.771372,31.7996817 C193.235094,31.7996817 193.728259,31.7702251 194.103654,31.7132266 C194.683307,33.1915793 198.102341,37.0190952 199.059229,38.0905788 L201.871007,41.2516393 C203.869431,43.4829762 205.290041,45.1067708 206.651766,46.4985948 L206.708738,46.4985948 C206.824742,46.3532265 206.824742,45.8892116 206.824742,45.2798283 L206.824742,39.0755336 C206.824742,37.7131662 206.797066,33.9445634 206.245089,33.0755939 C206.072113,32.8141667 205.608391,32.6411092 204.449084,32.4956673 L203.955919,32.4367541 C203.7535,32.2636966 203.782943,31.7997553 204.014804,31.7132266 C205.347087,31.7702251 206.333417,31.7996817 207.433838,31.7996817 C208.679633,31.7996817 209.432262,31.7702251 210.418592,31.7132266 C210.650454,31.8568274 210.650454,32.2636966 210.477478,32.4367541 L210.0708,32.4956673 C209.143355,32.6410356 208.563702,32.8712388 208.447771,33.1050505 C207.954606,34.1470775 208.013491,37.7426228 208.013491,39.0755336 L208.013491,46.0051969 Z" id="path3369"></path>
            <path d="M72.5080461,77.031089 C72.5080461,80.0743232 72.5669315,80.4517358 74.4199817,80.6542499 L75.2038937,80.7426197 C75.3768696,80.8879879 75.3198243,81.3796185 75.1450083,81.4661472 C73.4925365,81.4090014 72.5374888,81.3795448 71.3781823,81.3795448 C70.1618306,81.3795448 69.1184548,81.4090014 67.8432176,81.4661472 C67.6684016,81.3795448 67.6113563,80.9156771 67.7843322,80.7426197 L68.3934282,80.6542499 C70.0735025,80.4241202 70.1323879,80.0743232 70.1323879,77.031089 L70.1323879,66.332823 C70.1323879,63.8695154 70.0735025,63.3761175 68.7706628,63.2306756 L67.727287,63.1165313 C67.5230282,62.9416328 67.5524709,62.507148 67.7843322,62.3911627 C69.3208733,62.1868076 71.1168783,62.159192 73.5219792,62.159192 C75.9270801,62.159192 77.7249252,62.4776915 79.0866503,63.3172043 C80.4189326,64.1585582 81.4052632,65.6663676 81.4052632,67.6675748 C81.4052632,70.3333964 79.7527915,71.6681482 78.506997,72.2775315 C77.2317599,72.8850737 75.6952188,73.1465009 74.5083098,73.1465009 C74.304051,73.0581312 74.304051,72.6236464 74.4788671,72.5665743 C77.6089946,71.9866476 78.7388583,70.2174111 78.7388583,67.6951903 C78.7388583,64.8839268 77.0863866,63.0576181 74.0721897,63.0576181 C72.5374888,63.0576181 72.5080461,63.1736771 72.5080461,64.1014861 L72.5080461,77.031089 Z" id="path3373"></path>
            <path d="M85.5598128,72.0155445 C85.5598128,66.218119 89.906292,61.7812198 95.8758003,61.7812198 C102.570335,61.7812198 105.930484,66.6231471 105.930484,71.7265017 C105.930484,77.5809994 101.468074,81.8430001 95.8758003,81.8430001 C89.4425694,81.8430001 85.5598128,77.2348845 85.5598128,72.0155445 M103.034058,72.6249278 C103.034058,67.8400726 100.917863,62.6796458 95.382635,62.6796458 C92.3702783,62.6796458 88.458079,64.7397663 88.458079,71.0876619 C88.458079,75.3791192 90.5448306,80.944574 96.2530349,80.944574 C99.7291142,80.944574 103.034058,78.3358246 103.034058,72.6249278" id="path3377"></path>
            <path d="M115.488881,81.8436334 C113.054337,81.8436334 111.519636,81.0887346 110.967586,80.7702352 C110.619794,80.1332364 110.244399,78.074957 110.185514,76.7125896 C110.330814,76.5100756 110.765167,76.4511624 110.881098,76.6261345 C111.315378,78.1044873 112.504127,80.9452074 115.866116,80.9452074 C118.300659,80.9452074 119.487568,79.3508693 119.487568,77.6110893 C119.487568,76.3352507 119.226264,74.9139701 117.11191,73.5516027 L114.359017,71.7547506 C112.908964,70.7974114 111.22889,69.1460012 111.22889,66.7692224 C111.22889,64.01319 113.372687,61.7818531 117.141353,61.7818531 C118.039355,61.7818531 119.082731,61.9549106 119.83536,62.1592657 C120.212595,62.2753247 120.617432,62.3323232 120.849293,62.3323232 C121.110597,63.0282352 121.371901,64.6520298 121.371901,65.8689553 C121.256044,66.0438538 120.792248,66.1303825 120.646875,65.957325 C120.26964,64.5655011 119.487568,62.6802792 116.705233,62.6802792 C113.865852,62.6802792 113.256756,64.5655011 113.256756,65.8984119 C113.256756,67.5792787 114.647924,68.7980452 115.720742,69.4645006 L118.039355,70.9133967 C119.864803,72.0437934 121.660808,73.7265012 121.660808,76.4806926 C121.660808,79.6693687 119.255707,81.8436334 115.488881,81.8436334" id="path3381"></path>
            <path d="M136.077045,77.031089 C136.077045,80.0743232 136.135931,80.510649 137.816005,80.6542499 L138.74345,80.7426197 C138.916426,80.8586786 138.859454,81.3796185 138.686478,81.4661472 C137.034007,81.4090014 136.047676,81.3795448 134.88837,81.3795448 C133.730903,81.3795448 132.71513,81.4090014 130.86208,81.4661472 C130.687264,81.3795448 130.630218,80.8880616 130.86208,80.7426197 L131.903615,80.6542499 C133.556087,80.510649 133.701461,80.0743232 133.701461,77.031089 L133.701461,64.0720295 C133.701461,63.1736034 133.701461,63.1441469 132.831061,63.1441469 L131.237474,63.1441469 C129.99168,63.1441469 128.398093,63.2011454 127.673067,63.8695154 C126.977483,64.5065142 126.688576,65.1453541 126.370227,65.8688816 C126.138366,66.0437801 125.731689,65.8983382 125.615758,65.6663676 C126.079481,64.3629134 126.51376,62.507148 126.718019,61.3472947 C126.804581,61.2883815 127.181742,61.2608396 127.26823,61.3472947 C127.441206,62.2751774 128.398093,62.2457208 129.730376,62.2457208 L141.466974,62.2457208 C143.032958,62.2457208 143.292421,62.1868076 143.728541,61.4338235 C143.872075,61.3749103 144.192264,61.4043669 144.249309,61.5204258 C143.93096,62.7097358 143.728541,65.0570579 143.815029,65.9278685 C143.699172,66.1598391 143.205933,66.1598391 143.06056,65.984867 C142.973999,65.2613394 142.771654,64.1880148 142.337374,63.8695154 C141.669392,63.3761175 140.568971,63.1441469 138.975385,63.1441469 L136.918076,63.1441469 C136.047676,63.1441469 136.077119,63.1736034 136.077119,64.1309427 L136.077119,77.031089 L136.077045,77.031089 Z" id="path3385"></path>
        </g>
    </g>
</svg>