<svg width="216" height="101" viewBox="0 0 216 101" fill="none" xmlns="http://www.w3.org/2000/svg">
<path d="M36.3213 73.0259C53.9463 73.0259 68.3446 59.3094 68.3446 42.2558C68.3446 25.2023 53.9463 11.4857 36.3213 11.4857C18.6964 11.4857 4.29809 25.2023 4.29809 42.2558C4.29809 59.3094 18.6964 73.0259 36.3213 73.0259Z" fill="#FF9569" stroke="#FF9569" stroke-width="3.052"/>
<path fill-rule="evenodd" clip-rule="evenodd" d="M25.8102 30.3547L21.8779 39.1545L30.8599 61.3442L50.1354 54.1699L38.5726 25.6046L25.8102 30.3547Z" fill="#FFECFD" fill-opacity="0.6"/>
<path fill-rule="evenodd" clip-rule="evenodd" d="M38.7872 38.5877L43.8799 51.1691C43.9762 51.407 43.8585 51.6725 43.619 51.7616L33.9756 55.3509C33.7355 55.4403 33.4623 55.3203 33.366 55.0824L28.2733 42.501C28.177 42.2631 28.2942 41.9978 28.5342 41.9084L38.1776 38.3191C38.4172 38.23 38.6909 38.3498 38.7872 38.5877Z" fill="#FFEEE7"/>
<path fill-rule="evenodd" clip-rule="evenodd" d="M60.7996 77.9541C66.9273 79.7287 73.492 76.3109 75.4622 70.3202C77.4324 64.3296 74.062 58.0347 67.9343 56.2601C61.8065 54.4856 55.2418 57.9034 53.2716 63.894C51.3015 69.8846 54.6718 76.1796 60.7996 77.9541Z" fill="#FDDA8C"/>
<path fill-rule="evenodd" clip-rule="evenodd" d="M78.7365 71.2684C76.1666 79.0827 67.635 83.4802 59.7347 81.1923C51.8344 78.9044 47.4275 70.76 49.9974 62.9458C52.5674 55.1316 61.099 50.734 68.9993 53.0219C76.8996 55.3098 81.3064 63.4542 78.7365 71.2684ZM75.4623 70.3202C73.4921 76.3109 66.9274 79.7287 60.7996 77.9541C54.6719 76.1795 51.3015 69.8846 53.2717 63.894C55.2419 57.9034 61.8066 54.4856 67.9343 56.2601C74.0621 58.0347 77.4324 64.3296 75.4623 70.3202Z" fill="#FF9569"/>
<path fill-rule="evenodd" clip-rule="evenodd" d="M57.2502 64.856C56.1133 68.8693 58.3697 72.9716 62.4227 74.1306C66.4744 75.2893 70.8306 73.0799 72.3315 69.1724L57.2502 64.856Z" fill="#84641D"/>
<path fill-rule="evenodd" clip-rule="evenodd" d="M61.3171 64.3377C62.1199 64.568 62.9836 64.113 63.2463 63.3216C63.509 62.5301 63.0711 61.7018 62.2682 61.4716C61.4654 61.2413 60.6016 61.6963 60.339 62.4878C60.0763 63.2792 60.5142 64.1075 61.3171 64.3377Z" fill="#84641D"/>
<path fill-rule="evenodd" clip-rule="evenodd" d="M68.3147 66.3387C69.1176 66.569 69.9813 66.114 70.244 65.3226C70.5066 64.5311 70.0687 63.7028 69.2659 63.4726C68.4631 63.2423 67.5993 63.6973 67.3367 64.4887C67.074 65.2802 67.5119 66.1085 68.3147 66.3387Z" fill="#84641D"/>
<path d="M112.153 52.3991C125.279 52.3991 136.03 42.1796 136.03 29.4399C136.03 16.7002 125.279 6.48071 112.153 6.48071C99.0266 6.48071 88.2753 16.7002 88.2753 29.4399C88.2753 42.1796 99.0266 52.3991 112.153 52.3991Z" fill="#92E9F6" stroke="#92E9F6" stroke-width="3.052"/>
<path opacity="0.6" fill-rule="evenodd" clip-rule="evenodd" d="M111.815 18.4251L105.604 22.1352L101.305 39.0862L116.03 42.5202L121.564 20.6988L111.815 18.4251Z" fill="#E4F7FA"/>
<path fill-rule="evenodd" clip-rule="evenodd" d="M116.018 28.5906L113.58 38.2018C113.534 38.3835 113.347 38.4958 113.164 38.4531L105.798 36.7351C105.614 36.6923 105.503 36.5104 105.549 36.3287L107.986 26.7176C108.032 26.5358 108.219 26.4234 108.402 26.4662L115.769 28.1842C115.952 28.2269 116.064 28.4089 116.018 28.5906Z" fill="#E4F7FA"/>
<path fill-rule="evenodd" clip-rule="evenodd" d="M92.9381 54.7605C97.4519 53.5293 100.001 48.9556 98.6306 44.5448C97.2607 40.1339 92.4909 37.5563 87.9771 38.7875C83.4633 40.0187 80.9146 44.5924 82.2846 49.0032C83.6545 53.4141 88.4242 55.9917 92.9381 54.7605Z" fill="#FDDA8C"/>
<path fill-rule="evenodd" clip-rule="evenodd" d="M101.919 43.6478C103.86 49.8961 100.239 56.3003 93.9491 58.0159C87.6593 59.7315 80.9366 56.1485 78.9959 49.9002C77.0553 43.6519 80.6762 37.2477 86.966 35.5321C93.2559 33.8165 99.9786 37.3995 101.919 43.6478ZM98.6306 44.5448C100.001 48.9556 97.4519 53.5293 92.9381 54.7605C88.4242 55.9917 83.6545 53.4141 82.2846 49.0032C80.9146 44.5924 83.4633 40.0187 87.9771 38.7875C92.491 37.5563 97.2607 40.134 98.6306 44.5448Z" fill="#92E9F6"/>
<path fill-rule="evenodd" clip-rule="evenodd" d="M84.9812 49.5665C86.2817 51.9469 89.1265 53.2394 91.8223 52.5147C94.5189 51.7897 96.1696 49.2873 95.884 46.6327L84.9812 49.5665Z" fill="#84641D"/>
<path fill-rule="evenodd" clip-rule="evenodd" d="M87.535 46.8583C88.1263 46.6988 88.4574 46.097 88.2745 45.5141C88.0916 44.9313 87.464 44.5881 86.8727 44.7477C86.2815 44.9072 85.9504 45.509 86.1333 46.0918C86.3161 46.6746 86.9437 47.0178 87.535 46.8583Z" fill="#84641D"/>
<path fill-rule="evenodd" clip-rule="evenodd" d="M92.5336 44.8563C93.1249 44.6968 93.456 44.095 93.2731 43.5122C93.0903 42.9293 92.4627 42.5862 91.8714 42.7457C91.2801 42.9052 90.949 43.507 91.1319 44.0899C91.3148 44.6727 91.9424 45.0159 92.5336 44.8563Z" fill="#84641D"/>
<path d="M169.181 86.5279C185.316 86.5279 198.538 73.9651 198.538 58.2966C198.538 42.628 185.316 30.0652 169.181 30.0652C153.046 30.0652 139.824 42.628 139.824 58.2966C139.824 73.9651 153.046 86.5279 169.181 86.5279Z" fill="#82C6FF" stroke="#82C6FF" stroke-width="3.92602"/>
<path fill-rule="evenodd" clip-rule="evenodd" d="M167.354 42.8906L159.932 48.6747L157.246 71.3289L176.925 73.4744L180.383 44.3112L167.354 42.8906Z" fill="#E4F3FF" fill-opacity="0.4"/>
<path fill-rule="evenodd" clip-rule="evenodd" d="M174.536 55.4138L173.013 68.2586C172.984 68.5015 172.761 68.6764 172.517 68.6497L162.671 67.5763C162.426 67.5495 162.25 67.3311 162.279 67.0883L163.802 54.2435C163.831 54.0006 164.054 53.8257 164.299 53.8524L174.144 54.9258C174.389 54.9525 174.565 55.1709 174.536 55.4138Z" fill="#E4F3FF"/>
<path fill-rule="evenodd" clip-rule="evenodd" d="M144.303 92.0062C150.396 89.9241 153.438 83.3675 151.096 77.3617C148.755 71.3559 141.918 68.1752 135.824 70.2574C129.731 72.3395 126.69 78.8961 129.031 84.9019C131.372 90.9077 138.21 94.0884 144.303 92.0062Z" fill="#FFD67C"/>
<path fill-rule="evenodd" clip-rule="evenodd" d="M154.322 76.2593C157.346 84.0162 153.419 92.4904 145.541 95.1825C137.663 97.8745 128.829 93.7611 125.805 86.0042C122.781 78.2474 126.708 69.7731 134.586 67.0811C142.464 64.389 151.298 68.5025 154.322 76.2593ZM151.096 77.3617C153.438 83.3675 150.396 89.924 144.303 92.0062C138.21 94.0883 131.372 90.9076 129.031 84.9018C126.69 78.8961 129.731 72.3395 135.824 70.2573C141.918 68.1752 148.755 71.3559 151.096 77.3617Z" fill="#82C6FF"/>
<path fill-rule="evenodd" clip-rule="evenodd" d="M133.046 84.2567C134.905 87.8678 139.252 89.6948 143.149 88.3662C147.047 87.0371 149.112 83.0217 148.043 79.1396L133.046 84.2567Z" fill="#84641D"/>
<path fill-rule="evenodd" clip-rule="evenodd" d="M135.359 80.4343C136.16 80.1613 136.558 79.2986 136.249 78.5074C135.94 77.7162 135.04 77.2961 134.24 77.5691C133.439 77.8421 133.04 78.7047 133.35 79.496C133.659 80.2872 134.558 80.7073 135.359 80.4343Z" fill="#84641D"/>
<path fill-rule="evenodd" clip-rule="evenodd" d="M142.357 78.4327C143.158 78.1597 143.556 77.297 143.247 76.5058C142.938 75.7146 142.038 75.2945 141.238 75.5675C140.437 75.8405 140.038 76.7032 140.347 77.4944C140.656 78.2856 141.556 78.7057 142.357 78.4327Z" fill="#84641D"/>
<path opacity="0.864402" fill-rule="evenodd" clip-rule="evenodd" d="M70.0493 4.30002C71.2876 4.30002 72.2914 3.33742 72.2914 2.15001C72.2914 0.962591 71.2876 0 70.0493 0C68.811 0 67.8071 0.962591 67.8071 2.15001C67.8071 3.33742 68.811 4.30002 70.0493 4.30002Z" fill="#8A8A8B"/>
<path fill-rule="evenodd" clip-rule="evenodd" d="M11.5606 8.16716C13.6244 8.16716 15.2975 6.56285 15.2975 4.58383C15.2975 2.6048 13.6244 1.00049 11.5606 1.00049C9.49679 1.00049 7.82373 2.6048 7.82373 4.58383C7.82373 6.56285 9.49679 8.16716 11.5606 8.16716Z" fill="#FFD67C"/>
<path fill-rule="evenodd" clip-rule="evenodd" d="M89.0051 86.2984C90.2219 86.2984 91.2083 85.3526 91.2083 84.1858C91.2083 83.019 90.2219 82.0731 89.0051 82.0731C87.7883 82.0731 86.8019 83.019 86.8019 84.1858C86.8019 85.3526 87.7883 86.2984 89.0051 86.2984Z" fill="#82C6FF"/>
<path fill-rule="evenodd" clip-rule="evenodd" d="M181.029 17.1606C183.376 17.1606 185.279 15.3356 185.279 13.0843C185.279 10.8331 183.376 9.00806 181.029 9.00806C178.681 9.00806 176.778 10.8331 176.778 13.0843C176.778 15.3356 178.681 17.1606 181.029 17.1606Z" fill="#FF9569"/>
<path opacity="0.864402" fill-rule="evenodd" clip-rule="evenodd" d="M17.0247 88.301C18.2415 88.301 19.2279 87.3551 19.2279 86.1883C19.2279 85.0216 18.2415 84.0757 17.0247 84.0757C15.8079 84.0757 14.8215 85.0216 14.8215 86.1883C14.8215 87.3551 15.8079 88.301 17.0247 88.301Z" fill="#82C6FF"/>
<path fill-rule="evenodd" clip-rule="evenodd" d="M149.57 17.0974C152.765 17.0974 155.354 14.6142 155.354 11.5511C155.354 8.48792 152.765 6.00476 149.57 6.00476C146.376 6.00476 143.786 8.48792 143.786 11.5511C143.786 14.6142 146.376 17.0974 149.57 17.0974Z" fill="#82C6FF"/>
<path fill-rule="evenodd" clip-rule="evenodd" d="M101.002 73.2875C102.219 73.2875 103.205 72.3416 103.205 71.1748C103.205 70.008 102.219 69.0621 101.002 69.0621C99.7852 69.0621 98.7988 70.008 98.7988 71.1748C98.7988 72.3416 99.7852 73.2875 101.002 73.2875Z" fill="#FF9569"/>
<path opacity="0.864402" fill-rule="evenodd" clip-rule="evenodd" d="M3.02862 71.2855C4.24541 71.2855 5.23181 70.3396 5.23181 69.1729C5.23181 68.0061 4.24541 67.0602 3.02862 67.0602C1.81184 67.0602 0.825439 68.0061 0.825439 69.1729C0.825439 70.3396 1.81184 71.2855 3.02862 71.2855Z" fill="#959595"/>
<path fill-rule="evenodd" clip-rule="evenodd" d="M205.973 75.2894C207.19 75.2894 208.177 74.3435 208.177 73.1767C208.177 72.01 207.19 71.0641 205.973 71.0641C204.757 71.0641 203.77 72.01 203.77 73.1767C203.77 74.3435 204.757 75.2894 205.973 75.2894Z" fill="#FFD67C"/>
<path opacity="0.864402" fill-rule="evenodd" clip-rule="evenodd" d="M212.971 53.2694C214.188 53.2694 215.175 52.3235 215.175 51.1567C215.175 49.9899 214.188 49.0441 212.971 49.0441C211.755 49.0441 210.768 49.9899 210.768 51.1567C210.768 52.3235 211.755 53.2694 212.971 53.2694Z" fill="#959595"/>
</svg>
