<?xml version="1.0" encoding="UTF-8"?>
<svg width="159px" height="27px" viewBox="0 0 159 27" version="1.1" xmlns="http://www.w3.org/2000/svg" xmlns:xlink="http://www.w3.org/1999/xlink">
    <!-- Generator: Sketch 60.1 (88133) - https://sketch.com -->
    <title>shortList</title>
    <desc>Created with Sketch.</desc>
    <g id="Page-1" stroke="none" stroke-width="1" fill="none" fill-rule="evenodd">
        <g id="shortList" fill="#FFFFFF" fill-rule="nonzero">
            <path d="M43.78,15.5 C43.78,10.66 41.53,7.68 36.65,7.68 C33.05,7.68 30.55,9.35 29.52,12.06 L29.45,12.06 C29.75,10.56 29.75,9.46 29.75,7.98 L29.75,0 L22,0 L22,4 L24.22,4 L24.22,24.43 L22,24.43 L22,27 L31.97,27 L31.97,24.46 L29.77,24.46 L29.77,17.66 C29.77,14.53 31.32,12.06 34.64,12.06 C36.74,12.06 38.24,13.23 38.24,16.04 L38.24,24.46 L36.04,24.46 L36.04,27 L46,27 L46,24.46 L43.78,24.46 L43.78,15.5 Z M13.08,11.5 L9.68,10.68 C7.8,10.2 6.22,9.63 6.22,7.6 C6.22,6.05 7.56,4.02 11.52,4.02 C12.94,4.02 14.35,4.39 15.42,4.76 L15.42,7.96 L20.54,7.96 L20.54,1.5 C18.14,0.6 14.84,0 11.4,0 C3.34,0 0.17,3.92 0.17,8.3 C0.17,12.57 2.17,14.83 8.02,16.3 L11.15,17.1 C14.98,18.08 15.77,19.13 15.77,20.55 C15.77,22.67 14.15,24.13 10.67,24.13 C9.02,24.13 7.4,24.03 5.89,23.43 L5.89,19.87 L0,19.87 L0,27 L17.97,27 C20.67,25.38 22,22.74 22,19.67 C22,13.89 17.28,12.54 13.08,11.49 L13.08,11.5 Z M55.48,8 C48.96,8 45,12.92 45,18.6 C45,22.58 46.38,25.36 48.83,27 L61.8,27 C64.45,25.2 66,22.22 66,18.6 C65.97,11.68 62.2,8 55.48,8 Z M55.5,24.5 C52.33,24.5 51,22.35 51,18.83 C51,15.25 52.33,12.5 55.5,12.5 C58.67,12.5 60,14.62 60,18.83 C60.03,22.35 58.64,24.5 55.5,24.5 Z M92.27,24.68 C89.97,24.68 89.22,24.01 89.22,21.23 L89.22,12.5 L94.82,12.5 L94.82,8.6 L89.2,8.6 L89.2,4 L83.6,4.37 L83.6,8.6 L81,8.6 L81,12.5 L83.66,12.5 L83.66,23.48 C83.66,24.98 84.06,26.14 84.82,27 L94.82,27 L95,24.1 C93.95,24.44 93.04,24.68 92.27,24.68 Z M73.3,13.02 L73.24,13.02 C73.48,11.14 73.48,9.84 73.48,8.5 L66,8.5 L66,12.42 L68.25,12.42 L68.25,24.52 L66,24.52 L66,27 L76.5,27 L76.5,24.52 L73.9,24.52 L73.9,18.04 C73.9,14.76 76,12.74 79.03,12.74 C79.59,12.74 80.4,12.98 81,13.12 L81,8.12 C80.6,8.07 80.02,8 79.3,8 C76.12,8 74.2,9.67 73.3,13.02 Z" id="Shape"></path>
            <path d="M122.03,7 C123.73,7 125,6.34 125,5.83 L125,1.23 C125,0.7 123.7,0 122.03,0 C120.33,0 119,0.7 119,1.24 L119,5.84 C119,6.31 120.37,7 122.03,7 Z M110.88,24.5 L104.02,24.5 L104.02,3.67 L106.55,3.67 L106.55,0 L96.07,0 L96.07,3.64 L98.53,3.64 L98.53,24.46 L96,24.46 L96,27 L116,27 L116,19.32 L111.26,19.32 L110.88,24.5 Z M156.2,24.87 C153.92,24.87 153.12,23.99 153.12,21.17 L153.12,12.27 L158.65,12.27 L158.65,8.32 L153.12,8.32 L153.12,4 L147.56,4.34 L147.56,8.3 L145,8.3 L145,12.24 L147.56,12.24 L147.63,23.42 C147.63,24.94 148.01,26.12 148.77,27 L159,27 L159,24.13 C157.96,24.53 156.93,24.87 156.2,24.87 Z M123.92,8 L116,8 L116,12.02 L118.35,12.02 L118.35,24.46 L116.25,24.46 L116.25,27 L126,27 L126,24.46 L123.92,24.46 L123.92,8 Z M139.42,15.9 L135.07,15.3 C133.47,15.1 133.21,14.7 133.21,13.72 C133.21,12.62 134.41,11.62 136.89,11.62 C137.93,11.62 139.13,11.98 140.24,12.42 L140.24,14.22 L145.04,14.22 L145.04,9.3 C142.04,8.3 139.28,8 137.07,8 C132.83,8 128.04,9.6 128.04,14.52 C128.04,17.37 129.59,19.32 133.14,19.82 L137.76,20.48 C140.14,20.85 140.83,21.41 140.83,22.52 C140.83,24.62 137.97,24.92 136.83,24.92 C135.66,24.92 134.07,24.56 133.18,24.29 L133.18,22 L128.11,22 L128.11,27 L143.41,27 C145.28,25.7 146.04,23.82 146.04,21.92 C146.12,18.3 144.19,16.52 139.44,15.89 L139.42,15.9 Z" id="Shape"></path>
        </g>
    </g>
</svg>