<svg width="33" height="33" viewBox="0 0 33 33" fill="none" xmlns="http://www.w3.org/2000/svg">
<path fill-rule="evenodd" clip-rule="evenodd" d="M16.5 29.5625C9.28578 29.5625 3.4375 23.7142 3.4375 16.5C3.4375 9.28578 9.28578 3.4375 16.5 3.4375C23.7142 3.4375 29.5625 9.28578 29.5625 16.5C29.5625 23.7142 23.7142 29.5625 16.5 29.5625Z" fill="#FDDA8C"/>
<path fill-rule="evenodd" clip-rule="evenodd" d="M25.4221 15.9673C25.7023 20.5752 22.3938 24.6969 17.7439 25.3505C13.094 26.004 8.77761 22.9538 7.77678 18.4472L25.4221 15.9673Z" fill="#A47F2F"/>
<path fill-rule="evenodd" clip-rule="evenodd" d="M20.6382 13.8356C19.6982 13.9677 18.8291 13.3128 18.697 12.3728C18.5649 11.4328 19.2198 10.5637 20.1598 10.4316C21.0998 10.2995 21.9689 10.9544 22.101 11.8944C22.2331 12.8344 21.5782 13.7035 20.6382 13.8356Z" fill="#A47F2F"/>
<path fill-rule="evenodd" clip-rule="evenodd" d="M12.4685 14.9836C11.5285 15.1157 10.6594 14.4608 10.5273 13.5208C10.3952 12.5808 11.0501 11.7116 11.9901 11.5795C12.9301 11.4474 13.7992 12.1024 13.9313 13.0424C14.0635 13.9824 13.4085 14.8515 12.4685 14.9836Z" fill="#A47F2F"/>
</svg>
