<svg width="553" height="89" viewBox="0 0 553 89" fill="none" xmlns="http://www.w3.org/2000/svg">
<path d="M46.3926 34.4875H33.0315V64.8958C33.0315 70.0875 36.0007 71.2 40.8255 71.2C42.6812 71.2 44.5369 70.8292 46.3926 70.8292V86.775C42.3101 86.775 38.2275 87.5167 34.5161 87.5167C15.9591 87.5167 11.1342 81.9542 11.1342 63.7833V34.4875H0V20.025H11.1342V0H33.0315V20.025H46.3926V34.4875ZM65.6919 58.9625C66.0631 68.2333 71.2591 74.1667 80.5376 74.1667C85.7336 74.1667 90.9295 71.5708 93.1564 66.75H113.569C109.858 82.325 95.3832 89 80.5376 89C58.6403 89 43.7946 76.0208 43.7946 53.4C43.7946 33.0042 60.1248 18.1708 79.7953 18.1708C103.919 18.1708 115.796 36.3417 114.683 58.9625H65.6919ZM92.7852 46.725C92.4141 39.3083 87.2181 33.0042 79.7953 33.0042C72.0013 33.0042 66.8054 38.5667 65.6919 46.725H92.7852ZM162.931 44.5C162.931 38.9375 157.735 34.8583 152.168 34.8583C139.92 34.8583 138.064 45.2417 138.064 54.5125C138.064 63.0417 141.776 71.9417 151.054 71.9417C158.848 71.9417 162.56 67.4917 163.673 60.4458H184.828C182.972 78.6167 169.24 89 151.425 89C131.384 89 116.167 75.2792 116.167 54.8833C116.167 33.7458 129.528 18.5417 151.425 18.5417C168.127 18.5417 182.972 27.4417 184.457 44.8708H162.931V44.5ZM185.57 0H207.468V29.2958H207.839C211.179 22.6208 220.087 18.1708 228.252 18.1708C250.52 18.1708 252.376 34.4875 252.376 44.1292V87.1458H230.479V54.8833C230.479 45.6125 231.592 36.3417 219.344 36.3417C211.179 36.3417 207.468 43.3875 207.468 50.8042V87.1458H185.57V0ZM254.232 20.025H275.387V31.8917H275.758C279.098 23.3625 286.521 18.9125 295.799 18.9125C297.655 18.9125 299.14 18.9125 300.995 19.2833V39.3083C298.026 38.5667 295.428 38.1958 292.459 38.1958C281.696 38.1958 276.129 45.6125 276.129 54.1417V87.1458H254.232V20.025ZM300.995 40.7917C301.366 31.8917 305.449 26.3292 311.387 22.9917C317.325 19.6542 325.119 18.1708 332.542 18.1708C348.501 18.1708 363.718 21.5083 363.718 40.4208V69.7167C363.718 75.2792 363.718 81.5833 366.316 86.775H344.419C343.677 84.55 343.305 82.6958 343.305 80.4708C337.367 86.775 329.202 89 321.037 89C308.418 89 298.026 82.6958 298.026 68.6042C298.026 46.725 321.779 48.5792 336.996 45.2417C340.707 44.5 342.934 43.0167 342.934 38.9375C342.934 33.7458 336.996 31.8917 332.171 31.8917C326.233 31.8917 322.15 34.4875 321.037 40.4208H300.995V40.7917ZM329.202 75.65C339.594 75.65 343.305 69.7167 342.563 55.9958C339.594 57.85 333.656 58.2208 329.202 59.7042C324.377 60.8167 320.295 63.0417 320.295 68.2333C320.295 73.425 324.377 75.65 329.202 75.65ZM434.606 87.1458H413.822V79.3583H413.451C411.492 82.3798 408.794 84.8513 405.611 86.5387C402.428 88.226 398.867 89.0732 395.265 89C374.11 89 365.203 70.8292 365.203 52.2875C365.203 34.8583 374.481 18.5417 393.409 18.5417C401.574 18.5417 407.884 21.5083 412.338 27.8125H412.709V0H434.606V87.1458ZM387.1 53.0292C387.1 62.3 390.44 72.3125 400.461 72.3125C411.224 72.3125 413.451 62.3 413.451 53.7708C413.451 44.1292 410.111 35.2292 400.461 35.2292C390.44 34.8583 387.1 44.5 387.1 53.0292ZM437.946 40.7917C438.317 31.8917 442.4 26.3292 448.338 22.9917C454.277 19.6542 462.07 18.1708 469.493 18.1708C485.452 18.1708 500.669 21.5083 500.669 40.4208V69.7167C500.669 75.2792 500.669 81.5833 503.267 86.775H481.37C480.627 84.55 480.256 82.6958 480.256 80.4708C474.318 86.775 465.782 89 457.988 89C445.369 89 434.977 82.6958 434.977 68.6042C434.977 46.725 458.73 48.5792 473.947 45.2417C477.658 44.5 479.885 43.0167 479.885 38.9375C479.885 33.7458 473.947 31.8917 469.122 31.8917C463.184 31.8917 459.101 34.4875 457.988 40.4208H437.946V40.7917ZM466.153 75.65C476.545 75.65 480.256 69.7167 479.514 55.9958C476.545 57.85 470.607 58.2208 466.153 59.7042C461.328 60.8167 457.246 63.0417 457.246 68.2333C456.874 73.425 461.328 75.65 466.153 75.65ZM504.009 20.025H525.164V31.8917H525.536C528.876 23.3625 536.299 18.9125 545.577 18.9125C547.433 18.9125 551.144 18.9125 553 19.2833V39.3083C550.031 38.5667 545.577 38.1958 542.608 38.1958C531.845 38.1958 526.278 45.6125 526.278 54.1417V87.1458H504.38V20.025H504.009Z" fill="white"/>
<path d="M531.103 65.2667H553V87.1459H531.103V65.2667Z" fill="white"/>
</svg>
