<svg width="28" height="40" viewBox="0 0 28 40" fill="none" xmlns="http://www.w3.org/2000/svg">
<path d="M22.8458 14.7057C22.5603 14.4969 22.2215 14.2444 22.0667 14.0939C22.1489 13.9531 22.2941 13.7347 22.4248 13.5502C23.1797 12.4481 24.6024 10.3702 24.6024 7.3941C24.6024 5.68516 23.983 3.83542 22.4828 2.41291C20.9827 0.990411 18.6163 0 15.1418 0C11.8463 0 8.1395 1.08751 4.93113 2.9858C3.49873 3.84513 2.31313 4.76271 1.48563 5.65117C0.658129 6.53477 0.17905 7.38439 0.17905 8.11263C0.17905 8.46705 0.314547 8.79233 0.571023 9.04479C1.04042 9.50601 1.86792 9.71963 2.9277 9.83615C3.98749 9.94781 5.27955 9.95266 6.67323 9.95266H6.92003C9.06379 9.95266 10.5785 10.0109 11.5463 10.1517C12.0302 10.2245 12.3786 10.3168 12.5915 10.4236C12.8093 10.5353 12.8771 10.6469 12.8819 10.7683C12.8867 10.8168 12.8287 10.9334 12.6932 11.0644C12.2286 11.5305 11.014 12.2199 9.92032 12.9822C9.3735 13.3608 8.8557 13.7638 8.46857 14.1716C8.08627 14.5794 7.82496 14.997 7.82012 15.4291V15.4485C7.82496 15.9971 8.11531 16.434 8.55567 16.7739C9.88645 17.7983 12.6399 18.0653 14.082 18.3275C14.9724 18.4877 15.4418 18.8081 15.6983 19.1528C15.9548 19.4975 15.9983 19.8859 15.9983 20.216C15.9983 21.4541 15.5386 22.5464 14.716 23.2989C13.9852 23.9738 13.1045 24.4107 11.8221 24.4107C11.7737 24.4107 11.7205 24.4107 11.6673 24.4107C11.6963 24.1631 11.7108 23.9204 11.7108 23.6873C11.7108 22.2309 11.1398 21.0123 10.1671 20.1675C9.19928 19.3227 7.83463 18.8469 6.25222 18.8469C4.30203 18.8469 2.73414 19.6577 1.65984 20.8666C0.585541 22.0755 0.00483918 23.6679 0 25.2409C0 27.717 1.13721 30.2027 3.35355 32.0621C5.5699 33.9264 8.86538 35.1645 13.1819 35.1645C16.6032 35.1645 20.0536 34.0333 22.6667 32.0621C24.8298 30.426 27.414 27.4499 27.414 22.561C27.414 18.0799 24.4234 15.866 22.8458 14.7057ZM9.22832 15.0212C9.7074 14.5406 10.6946 13.8658 11.4301 13.3948C12.1512 12.9288 12.7996 12.5112 13.2787 12.0986C13.753 11.681 14.0627 11.2586 14.0627 10.7683C14.0627 10.3848 13.9126 10.0303 13.632 9.74876C13.1287 9.25355 12.2383 9.02051 11.1253 8.89428C10.0123 8.77291 8.67665 8.76805 7.29265 8.76805C7.16683 8.76805 7.04101 8.76805 6.91035 8.76805C5.7683 8.76805 4.85854 8.75349 4.13266 8.72436C5.13921 8.33111 6.31029 7.70482 7.583 7.02512C9.64933 5.91819 11.9334 4.68989 14.0869 4.14128C13.5884 4.70931 13.269 5.35016 13.2642 5.90363C13.2642 6.03957 13.3077 6.18522 13.4094 6.29688C13.5158 6.40855 13.6804 6.48622 13.903 6.48622C14.2853 6.48622 14.716 6.33572 15.2144 6.18036C15.887 5.95703 16.6661 5.70458 17.5227 5.70458C18.2679 5.70458 19.0761 5.89392 19.9374 6.47166C19.3664 6.5105 18.897 6.67557 18.6067 6.90861C18.2873 7.15621 18.2098 7.43294 18.2147 7.62714C18.2195 7.94271 18.4373 8.18546 18.7131 8.50103C19.1583 9.00109 19.7342 9.65651 19.739 10.7149C19.739 11.4868 19.4438 12.3073 19.0083 12.9336C19.0083 12.8899 19.0131 12.8414 19.0131 12.7977C19.0131 12.2588 18.8922 11.6568 18.6018 11.3121C18.4228 11.113 18.1905 10.9965 17.9243 10.9965C17.4743 11.0013 17.0823 11.346 16.5016 11.8267C16.0903 12.1665 15.5773 12.6035 14.9337 13.0113C12.2141 14.7299 10.7575 15.3951 9.72676 15.4776C9.33478 15.497 8.76376 15.4873 9.22832 15.0212ZM11.7205 25.5322C13.2497 25.5322 14.5272 25.0661 15.5144 24.1583C16.5694 23.197 17.1694 21.7551 17.1694 20.2063C17.1694 19.4635 16.9371 18.8469 16.5161 18.3712C18.7954 18.9198 21.1666 20.0947 22.4828 21.8619C21.8925 21.6677 21.4811 21.6191 21.0601 21.6191C20.6343 21.624 20.2955 22.0706 20.2955 22.5804C20.2955 22.8474 20.3972 23.1484 20.5181 23.5271C20.7069 24.1146 20.9537 24.872 20.9537 25.775C20.9537 26.61 20.7456 27.5665 20.0923 28.6345C20.0729 27.7704 19.8406 27.081 19.5455 26.712C19.3132 26.4255 19.0615 26.3527 18.8922 26.3576C18.6212 26.3576 18.4082 26.4935 18.234 26.6974C18.055 26.9062 17.905 27.1829 17.7308 27.5033C17.1017 28.6345 16.1145 30.4357 13.0271 31.3679C13.3077 30.8824 13.4529 30.3872 13.4529 29.9939C13.4529 29.8386 13.4287 29.6929 13.3803 29.5716C13.2884 29.3337 13.0803 29.1929 12.848 29.1929H12.8432C12.5044 29.2074 12.1125 29.3142 11.6576 29.4453C10.9462 29.6444 10.0849 29.8871 9.13637 29.8871C8.15402 29.8871 7.07972 29.6298 5.97639 28.7899C6.35868 28.7316 6.69743 28.5957 6.94423 28.3869C7.14747 28.2122 7.27329 27.984 7.27329 27.7461C7.26845 27.382 6.98294 27.1344 6.65871 26.8382C6.18447 26.3916 5.62313 25.8672 5.62313 24.9788C5.62313 24.7214 5.67152 24.435 5.78282 24.1097C5.88444 24.3913 6.02962 24.6438 6.21835 24.8574C6.5087 25.1681 6.85228 25.3623 7.19102 25.3623C7.54428 25.3672 7.75721 25.1972 7.84431 24.9836C7.93626 24.77 7.93142 24.5224 7.93142 24.3331C7.93142 24.1146 8.03304 23.9058 8.19273 23.7505C8.35727 23.5951 8.57503 23.498 8.80247 23.498C9.32026 23.498 9.71708 23.7893 9.99291 24.2214C10.2639 24.6535 10.4091 25.2312 10.4091 25.7701C10.4091 26.1051 10.3558 26.4255 10.2445 26.6926L10.1284 26.979L10.3752 26.7897C10.8398 26.4255 11.2027 25.9109 11.3721 25.5371C11.4737 25.5322 11.5995 25.5322 11.7205 25.5322ZM1.61145 8.46219C1.45175 8.36509 1.35013 8.26314 1.35013 8.11263C1.35013 7.69025 1.75178 7.01541 2.48734 6.27746C4.70368 4.04904 9.83322 1.17975 15.1418 1.18461C17.8275 1.18461 20.0149 1.84974 21.4666 3.09746C22.7248 4.17526 23.4168 5.69972 23.4168 7.3941C23.4168 10.0012 22.1925 11.7975 21.4473 12.8851C21.065 13.4337 20.8424 13.759 20.8375 14.1279C20.8375 14.4192 20.9779 14.662 21.2005 14.895C21.4279 15.128 21.7473 15.3659 22.1393 15.6572C23.6878 16.8079 26.2284 18.6819 26.2284 22.5561C26.2284 26.9596 23.9104 29.6347 21.9554 31.1106C19.5503 32.9312 16.3468 33.975 13.1771 33.975C5.26503 33.9701 1.17108 29.557 1.17108 25.2312C1.17108 23.9447 1.65016 22.6338 2.52121 21.6483C3.39711 20.6627 4.66013 19.9976 6.24738 19.9976H6.25222C7.13779 19.9976 8.26048 20.2063 9.15089 20.8035C10.0413 21.4007 10.7091 22.3765 10.7091 23.9592C10.7091 24.0029 10.7091 24.0515 10.7091 24.0952C10.6317 23.9155 10.5204 23.7213 10.3655 23.532C10.0461 23.1387 9.53319 22.7892 8.77828 22.7892C7.92658 22.7892 7.20554 23.4883 7.20554 24.3233C7.20554 24.4787 7.18618 24.5758 7.16683 24.6243C7.16199 24.6438 7.15231 24.6535 7.14747 24.6583C6.93939 24.6535 6.69259 24.5078 6.49902 24.2262C6.30061 23.9398 6.15544 23.5126 6.15544 22.9688C6.15544 22.862 6.16028 22.7455 6.1748 22.629L6.19899 22.3765L6.02962 22.5658C5.23116 23.4592 4.9408 24.2651 4.9408 24.9642C4.9408 26.1051 5.7054 26.9159 6.16028 27.3383C6.24254 27.4159 6.34417 27.5082 6.42643 27.5907C6.46515 27.6344 6.49902 27.6733 6.52322 27.7024C6.5329 27.717 6.54257 27.7315 6.54741 27.7412C6.54741 27.7461 6.55225 27.7461 6.55225 27.7509C6.54741 27.7946 6.46031 27.9014 6.25222 27.984C6.02478 28.0811 5.66184 28.1539 5.13921 28.1539C4.96016 28.1539 4.75692 28.1442 4.53915 28.1248L4.34075 28.1054L4.46656 28.2607C5.98123 30.0716 7.65559 30.5668 9.10734 30.5668C10.1768 30.5668 11.1301 30.2998 11.8173 30.1056C12.1076 30.0231 12.4319 29.9017 12.6109 29.9017C12.6883 29.9017 12.7174 29.9211 12.7319 29.9405C12.7464 29.9599 12.7658 30.0085 12.7609 30.0765C12.7609 30.2852 12.6399 30.6688 12.4319 31.062C12.2238 31.4553 11.9334 31.8679 11.614 32.1592L11.4205 32.334L11.6818 32.3C16.1096 31.7272 17.5856 29.154 18.3163 27.8286C18.4373 27.6053 18.5534 27.4014 18.655 27.2557C18.7567 27.1052 18.8535 27.0324 18.8776 27.0421C18.9164 27.0421 18.9889 27.081 19.0615 27.1878C19.2793 27.513 19.4632 28.3238 19.4632 29.1686C19.4632 29.5327 19.4293 29.9114 19.3519 30.2561L19.2987 30.5134L19.4922 30.3338C21.1617 28.7802 21.6215 27.1489 21.6215 25.7895C21.6215 24.7506 21.3553 23.867 21.1666 23.2989C21.065 22.9834 20.9779 22.7018 20.9779 22.5658C20.9779 22.4542 20.9972 22.3959 21.0214 22.3668C21.0408 22.3377 21.0795 22.3182 21.1521 22.2988C21.8586 22.2988 22.6958 22.5513 23.7023 23.0319L23.9007 23.1242L23.8136 22.9251C22.449 19.7208 19.41 18.3469 16.4532 17.5992C14.9724 17.2254 13.5062 17.0021 12.2722 16.7884C11.3769 16.6331 10.5978 16.4777 10.0316 16.2738C9.93968 16.235 9.84289 16.1913 9.75579 16.1476C11.4447 15.934 13.4868 14.7397 15.3015 13.5696C15.9838 13.1327 16.5113 12.686 16.9323 12.3316C17.1549 12.1471 17.3581 11.9772 17.5324 11.8558C17.7017 11.7296 17.8517 11.6616 17.9146 11.6665C17.9776 11.6665 18.026 11.6907 18.084 11.7539C18.2486 11.9335 18.3502 12.4287 18.3453 12.9724C18.3453 13.4094 18.2873 13.8755 18.1808 14.2542L18.1227 14.4629L18.3066 14.3464C19.7439 13.4191 20.4359 12.0112 20.4359 10.6955C20.4359 9.37492 19.7051 8.54958 19.2357 8.02039C19.1632 7.93786 19.0809 7.84076 19.0131 7.75822C18.9599 7.69025 18.9164 7.62228 18.9018 7.59801C18.9115 7.56402 18.9502 7.49606 19.0325 7.4378C19.3325 7.20961 19.8503 7.06882 20.4455 7.07367C20.7504 7.07367 21.0746 7.10766 21.4037 7.18534L21.6311 7.23874L21.4908 7.05425C20.252 5.45697 18.8293 5.00061 17.5614 5.00061C16.5645 5.00061 15.6596 5.28219 15.0015 5.49581C14.6821 5.60262 14.2369 5.73856 14.0433 5.73856C14.0191 5.73856 13.9998 5.73856 13.9901 5.73371C13.9949 5.50067 14.1594 5.10742 14.4788 4.69474C14.8031 4.26751 15.2821 3.81114 15.8967 3.44217L16.1193 3.30623L15.858 3.28681C15.7467 3.2771 15.6306 3.27224 15.5096 3.27224C12.9642 3.2771 9.67836 5.13169 7.25393 6.38427C5.73927 7.18534 2.56477 9.03022 1.61145 8.46219Z" fill="white"/>
<path d="M1.07922 37.1842V36.5627H3.83756V37.1842H2.83101V39.9369H2.09061V37.1842H1.07922Z" fill="white"/>
<path d="M4.73263 36.5627V37.8347H4.74714C4.83425 37.6939 4.94071 37.5871 5.07137 37.524C5.20203 37.4609 5.33268 37.4269 5.4585 37.4269C5.63755 37.4269 5.78273 37.4511 5.89887 37.4997C6.01501 37.5482 6.10211 37.6162 6.16986 37.7036C6.23761 37.791 6.28116 37.8978 6.3102 38.0192C6.33923 38.1406 6.34891 38.2813 6.34891 38.4318V39.9369H5.68111V38.5532C5.68111 38.3542 5.65207 38.1988 5.58916 38.1017C5.52625 38.0046 5.41495 37.9512 5.25526 37.9512C5.07137 37.9512 4.94071 38.0046 4.85845 38.1163C4.77618 38.2231 4.73747 38.4027 4.73747 38.6503V39.932H4.06482V36.553H4.73263" fill="white"/>
<path d="M7.30231 37.4947V37.9462H7.31199C7.34102 37.8734 7.38458 37.8006 7.43781 37.7375C7.49104 37.6744 7.55395 37.6161 7.6217 37.5724C7.68945 37.5239 7.76687 37.4899 7.8443 37.4656C7.92173 37.4413 8.00399 37.4268 8.0911 37.4268C8.13465 37.4268 8.18304 37.4365 8.23627 37.451V38.0773C8.20724 38.0725 8.16852 38.0676 8.12497 38.0628C8.08142 38.0579 8.03787 38.0579 7.99915 38.0579C7.87817 38.0579 7.77171 38.0773 7.68945 38.121C7.60718 38.1647 7.53459 38.2181 7.4862 38.2909C7.43297 38.3638 7.39909 38.4463 7.3749 38.5385C7.3507 38.6356 7.34102 38.7376 7.34102 38.8444V39.9465H6.67322V37.4996H7.30231" fill="white"/>
<path d="M9.13149 39.3495C9.23311 39.4466 9.37829 39.4952 9.56702 39.4952C9.70251 39.4952 9.81865 39.4612 9.91544 39.3932C10.0122 39.3253 10.0751 39.2524 10.0945 39.1796H10.68C10.5881 39.4709 10.4429 39.6845 10.2445 39.8059C10.0509 39.9321 9.81381 39.9952 9.53798 39.9952C9.34441 39.9952 9.17504 39.9661 9.02019 39.903C8.86533 39.8399 8.73468 39.7525 8.62821 39.6408C8.52175 39.5292 8.43949 39.3932 8.38142 39.233C8.32335 39.0728 8.29431 38.9029 8.29431 38.7135C8.29431 38.529 8.32335 38.3591 8.38142 38.2038C8.43949 38.0436 8.52659 37.9076 8.63789 37.796C8.74919 37.6794 8.87985 37.592 9.02987 37.5241C9.17988 37.4561 9.34925 37.4221 9.53798 37.4221C9.74607 37.4221 9.92512 37.461 10.08 37.5435C10.2348 37.626 10.3606 37.7328 10.4574 37.8688C10.559 38.0047 10.6268 38.1601 10.6752 38.3349C10.7187 38.5096 10.7333 38.6893 10.7236 38.8786H8.96696C8.9718 39.0971 9.02987 39.2573 9.13149 39.3495ZM9.8864 38.063C9.80897 37.9756 9.68316 37.9319 9.52346 37.9319C9.417 37.9319 9.32506 37.9513 9.25731 37.9853C9.18956 38.0241 9.13149 38.0678 9.08794 38.1212C9.04438 38.1746 9.01535 38.2329 9.00083 38.2912C8.98148 38.3494 8.9718 38.4028 8.9718 38.4514H10.0606C10.0219 38.2814 9.96383 38.1552 9.8864 38.063Z" fill="white"/>
<path d="M11.7447 39.3495C11.8463 39.4466 11.9915 39.4952 12.1802 39.4952C12.3157 39.4952 12.4319 39.4612 12.5286 39.3932C12.6254 39.3253 12.6835 39.2524 12.7077 39.1796H13.2981C13.2061 39.4709 13.061 39.6845 12.8625 39.8059C12.669 39.9321 12.4319 39.9952 12.156 39.9952C11.9625 39.9952 11.7931 39.9661 11.6382 39.903C11.4834 39.8399 11.3527 39.7525 11.2463 39.6408C11.1398 39.5292 11.0575 39.3932 10.9995 39.233C10.9414 39.0728 10.9124 38.9029 10.9124 38.7135C10.9124 38.529 10.9414 38.3591 11.0043 38.2038C11.0624 38.0436 11.1495 37.9076 11.2608 37.796C11.3721 37.6794 11.5027 37.592 11.6527 37.5241C11.8028 37.4561 11.9721 37.4221 12.1609 37.4221C12.3689 37.4221 12.548 37.461 12.7029 37.5435C12.8577 37.626 12.9835 37.7328 13.0803 37.8688C13.1819 38.0047 13.2497 38.1601 13.2932 38.3349C13.3368 38.5096 13.3513 38.6893 13.3416 38.8786H11.585C11.5898 39.0971 11.6431 39.2573 11.7447 39.3495ZM12.5044 38.063C12.427 37.9756 12.3012 37.9319 12.1415 37.9319C12.035 37.9319 11.9479 37.9513 11.8754 37.9853C11.8028 38.0241 11.7495 38.0678 11.706 38.1212C11.6624 38.1746 11.6334 38.2329 11.614 38.2912C11.5947 38.3494 11.585 38.4028 11.585 38.4514H12.6738C12.6399 38.2814 12.5819 38.1552 12.5044 38.063Z" fill="white"/>
<path d="M14.4159 39.2087H13.6755V39.937H14.4159V39.2087Z" fill="white"/>
<path d="M15.9742 37.9319C15.8678 37.9319 15.7758 37.9562 15.7081 38.0047C15.6355 38.0533 15.5774 38.1164 15.529 38.1941C15.4855 38.2717 15.4516 38.3591 15.4322 38.4514C15.4129 38.5436 15.4032 38.6359 15.4032 38.7281C15.4032 38.8155 15.4129 38.9077 15.4322 39C15.4516 39.0922 15.4806 39.1748 15.5242 39.2476C15.5677 39.3204 15.6258 39.3835 15.6984 39.4272C15.771 39.4758 15.8581 39.5 15.9645 39.5C16.1242 39.5 16.2501 39.4563 16.3372 39.3641C16.4243 39.2767 16.4775 39.1553 16.5017 39H17.1453C17.1018 39.3253 16.9759 39.5729 16.7679 39.7428C16.5598 39.9127 16.2936 40.0001 15.9694 40.0001C15.7855 40.0001 15.621 39.971 15.4661 39.9079C15.3161 39.8447 15.1854 39.7622 15.079 39.6505C14.9725 39.5389 14.8902 39.4078 14.8273 39.2573C14.7693 39.1019 14.7402 38.9369 14.7402 38.7524C14.7402 38.563 14.7693 38.3883 14.8225 38.2232C14.8757 38.063 14.958 37.9222 15.0645 37.8008C15.1709 37.6843 15.3016 37.592 15.4564 37.5241C15.6113 37.4561 15.7855 37.4221 15.9839 37.4221C16.1291 37.4221 16.2694 37.4415 16.4001 37.4804C16.5356 37.5192 16.6517 37.5775 16.7582 37.6552C16.8646 37.7328 16.9517 37.8299 17.0147 37.9416C17.0776 38.0581 17.1163 38.1941 17.126 38.3494H16.4727C16.4291 38.0727 16.2597 37.9319 15.9742 37.9319Z" fill="white"/>
<path d="M17.4404 38.1843C17.4985 38.0241 17.5856 37.8882 17.6969 37.7765C17.8082 37.6649 17.9388 37.5775 18.0937 37.5144C18.2485 37.4512 18.4227 37.4221 18.6115 37.4221C18.805 37.4221 18.9793 37.4512 19.1341 37.5144C19.289 37.5775 19.4245 37.66 19.5309 37.7765C19.6422 37.8882 19.7245 38.0241 19.7874 38.1843C19.8455 38.3446 19.8793 38.5193 19.8793 38.7184C19.8793 38.9126 19.8503 39.0922 19.7874 39.2476C19.7293 39.4078 19.6422 39.5389 19.5309 39.6505C19.4196 39.7622 19.289 39.8496 19.1341 39.9079C18.9793 39.9661 18.805 39.9952 18.6115 39.9952C18.4179 39.9952 18.2485 39.9661 18.0937 39.9079C17.9388 39.8447 17.8082 39.7622 17.6969 39.6505C17.5856 39.5389 17.5033 39.4029 17.4404 39.2476C17.3823 39.0922 17.3484 38.9126 17.3484 38.7184C17.3533 38.5242 17.3823 38.3446 17.4404 38.1843ZM18.0501 39.0048C18.0695 39.0971 18.1034 39.1796 18.1469 39.2573C18.1905 39.3301 18.2534 39.3884 18.326 39.4321C18.4034 39.4758 18.4953 39.5 18.6066 39.5C18.7179 39.5 18.8147 39.4758 18.8921 39.4321C18.9696 39.3884 19.0325 39.3301 19.076 39.2573C19.1244 39.1845 19.1535 39.0971 19.1728 39.0048C19.1922 38.9126 19.2019 38.8155 19.2019 38.7184C19.2019 38.6213 19.1922 38.5242 19.1728 38.4271C19.1535 38.3349 19.1196 38.2475 19.076 38.1795C19.0325 38.1067 18.9696 38.0484 18.8921 37.9999C18.8147 37.9513 18.7179 37.9319 18.6066 37.9319C18.4953 37.9319 18.3986 37.9562 18.326 37.9999C18.2485 38.0484 18.1905 38.1067 18.1469 38.1795C18.1034 38.2523 18.0695 38.3349 18.0501 38.4271C18.0308 38.5242 18.0211 38.6164 18.0211 38.7184C18.0211 38.8155 18.0308 38.9126 18.0501 39.0048Z" fill="white"/>
<path d="M20.915 39.2087H20.1746V39.937H20.915V39.2087Z" fill="white"/>
<path d="M22.9668 39.9369V39.597H22.9522C22.8651 39.7378 22.7587 39.8398 22.6232 39.9029C22.4877 39.966 22.3473 40 22.207 40C22.0279 40 21.8779 39.9757 21.7666 39.9272C21.6505 39.8786 21.5634 39.8155 21.4956 39.7281C21.4279 39.6407 21.3843 39.5339 21.3553 39.4126C21.3263 39.2863 21.3166 39.1504 21.3166 38.9999V37.4948H21.9844V38.8737C21.9844 39.0776 22.0134 39.2281 22.0812 39.3252C22.1441 39.4223 22.2554 39.4757 22.4151 39.4757C22.599 39.4757 22.7296 39.4223 22.8119 39.3106C22.8942 39.2038 22.9329 39.0242 22.9329 38.7717V37.49H23.6007V39.9369H22.9668Z" fill="white"/>
<path d="M24.5976 36.5627V38.3736L25.4396 37.4949H26.2332L25.3138 38.3931L26.3348 39.9369H25.5267L24.854 38.8446L24.5976 39.097V39.9369H23.9249V36.5627H24.5976Z" fill="white"/>
</svg>
