<svg xmlns="http://www.w3.org/2000/svg" width="209" height="98" viewBox="0 0 209 98" fill="none">
<path d="M108.402 21.8692V13.8506H110.845V21.8861C110.845 23.9076 111.94 24.8678 113.794 24.8678C115.648 24.8678 116.726 23.9076 116.726 21.8861V13.8506H119.169V21.8692C119.169 25.2216 117.097 26.9904 113.794 26.9904C110.491 26.9904 108.402 25.2216 108.402 21.8692Z" fill="white"/>
<path d="M120.366 23.7562H122.59C122.708 24.9185 123.314 25.3397 124.663 25.3397C126.011 25.3397 126.516 24.9185 126.516 24.2279C126.516 23.5372 126.095 23.234 124.679 22.9981L123.618 22.8128C121.613 22.4759 120.568 21.5831 120.568 19.9995C120.568 18.416 121.933 17.1694 124.427 17.1694C127.308 17.1694 128.488 18.416 128.555 20.3365H126.398C126.348 19.1404 125.606 18.8035 124.427 18.8035C123.247 18.8035 122.809 19.2078 122.809 19.8816C122.809 20.5555 123.348 20.8418 124.359 21.0271L125.539 21.1956C127.78 21.5999 128.774 22.4254 128.774 24.0426C128.774 25.6598 127.241 26.9737 124.629 26.9737C122.017 26.9737 120.517 26.0135 120.366 23.7562Z" fill="white"/>
<path d="M143.721 17.3882L140.637 26.7208H138.261L137.081 22.8799C136.812 21.9534 136.542 21.0269 136.29 20.1004C136.037 21.0269 135.784 21.9534 135.514 22.8799L134.352 26.7208H131.976L128.892 17.3882H131.335L132.38 20.8753C132.717 21.9366 133.02 23.0484 133.307 24.1097C133.577 23.0316 133.863 21.9366 134.183 20.8584L135.228 17.3882H137.385L138.413 20.8584C138.75 21.9366 139.036 23.0316 139.306 24.1097C139.592 23.0484 139.896 21.9366 140.233 20.8753L141.277 17.3882H143.721Z" fill="white"/>
<path d="M144.597 17.3882H146.872V26.7209H144.597V17.3882ZM144.614 14.0527H146.855V16.1753H144.614V14.0527Z" fill="white"/>
<path d="M151.742 19.1236V24.1605C151.742 24.7838 152.045 24.986 152.803 24.986H153.578V26.7211C153.174 26.7548 152.753 26.7885 152.382 26.7885C150.427 26.7885 149.484 26.1146 149.484 24.3963V19.1236H148.034V17.3885H149.484V14.6763H151.742V17.3885H153.578V19.1236H151.742Z" fill="white"/>
<path d="M154.32 22.0547C154.32 19.073 156.156 17.1694 158.937 17.1694C161.38 17.1694 162.998 18.5676 163.267 20.7576H160.993C160.773 19.5952 159.948 19.073 158.937 19.073C157.572 19.073 156.662 20.0164 156.662 22.0547C156.662 24.0931 157.606 25.0365 158.937 25.0365C159.965 25.0365 160.841 24.4806 161.026 23.2508H163.301C163.048 25.525 161.313 26.9232 158.937 26.9232C156.173 26.9232 154.32 25.0365 154.32 22.0547Z" fill="white"/>
<path d="M172.94 20.5384V26.7209H170.665V20.909C170.665 19.7298 170.058 19.1402 168.912 19.1402C167.767 19.1402 166.823 19.8309 166.823 21.4986V26.7209H164.548V13.8506H166.823V18.6348C167.145 18.1799 167.572 17.8091 168.068 17.554C168.563 17.2989 169.113 17.1669 169.671 17.1692C171.625 17.1692 172.94 18.3148 172.94 20.5384Z" fill="white"/>
<path d="M118.512 42.2696C118.512 44.4259 117.08 45.8747 114.333 45.8747H108.705V33.0044H114.064C116.726 33.0044 117.973 34.5542 117.973 36.3736C117.993 36.955 117.845 37.53 117.546 38.0292C117.247 38.5284 116.81 38.9304 116.288 39.1868C117.872 39.7933 118.512 40.9725 118.512 42.2696ZM110.222 34.3858V38.6309H113.946C115.664 38.6309 116.49 37.8055 116.49 36.4241C116.49 35.0427 115.664 34.3858 113.946 34.3858H110.222ZM116.979 42.2696C116.979 40.6861 115.951 39.9786 114.232 39.9786H110.222V44.5101H114.249C116.069 44.5101 116.979 43.651 116.979 42.2696Z" fill="white"/>
<path d="M128.353 41.7137H121.276C121.41 43.8194 122.523 44.7796 124.14 44.7796C125.455 44.7796 126.297 44.089 126.617 43.0445H128.117C127.662 44.7965 126.331 46.0936 124.106 46.0936C121.562 46.0936 119.776 44.2406 119.776 41.2083C119.776 38.1761 121.478 36.3398 124.073 36.3398C126.668 36.3398 128.353 38.5467 128.353 41.2083V41.7137ZM121.309 40.4166H126.803C126.651 38.8836 125.741 37.6538 124.073 37.6538C122.405 37.6538 121.545 38.5804 121.309 40.4166Z" fill="white"/>
<path d="M129.313 42.9097H130.779C130.931 44.3248 131.622 44.847 133.273 44.847C134.925 44.847 135.514 44.3248 135.514 43.3983C135.514 42.4718 135.009 42.1854 133.374 41.8821L132.515 41.7137C130.493 41.3431 129.6 40.4166 129.6 38.9678C129.6 37.5191 130.864 36.3398 133.004 36.3398C135.498 36.3398 136.761 37.4348 136.795 39.4226H135.346C135.278 37.9739 134.419 37.5864 133.004 37.5864C131.588 37.5864 131.049 38.0918 131.049 38.951C131.049 39.8101 131.74 40.1639 132.919 40.3997L133.762 40.5682C136.054 41.023 136.98 41.7979 136.98 43.3141C136.98 45.0829 135.565 46.0936 133.273 46.0936C130.982 46.0936 129.448 45.0997 129.313 42.9097Z" fill="white"/>
<path d="M140.401 37.8223V43.87C140.401 44.3585 140.637 44.6617 141.479 44.6617H142.322V45.8746L141.294 45.9252C139.845 45.9252 138.969 45.4198 138.969 44.0048V37.8223H137.418V36.5589H138.969V33.9141H140.401V36.5589H142.322V37.8223H140.401Z" fill="white"/>
<path d="M156.999 36.9632C156.999 39.2879 155.584 40.922 152.736 40.922H148.894V45.8747H147.377V33.0044H152.736C155.584 33.0044 156.999 34.6553 156.999 36.9632ZM155.432 36.9632C155.432 35.346 154.539 34.3858 152.736 34.3858H148.894V39.5574H152.736C154.539 39.5574 155.432 38.5972 155.432 36.9632Z" fill="white"/>
<path d="M164.649 42.1349H158.785L157.302 45.8747H155.718L160.841 33.0044H162.543L167.75 45.8747H166.149L164.649 42.1349ZM164.093 40.7704L164.026 40.6019C163.47 39.2037 162.459 36.6431 161.683 34.6553C160.942 36.6431 159.948 39.2037 159.392 40.6187L159.324 40.7704H164.093Z" fill="white"/>
<path d="M176.933 33.0044L172.013 40.703V45.8747H170.496V40.703L165.576 33.0044H167.312L169.216 36.0367C169.924 37.1316 170.614 38.2266 171.272 39.3553C171.946 38.2266 172.636 37.1148 173.344 36.003L175.215 33.0044H176.933Z" fill="white"/>
<path d="M188.173 39.2708V45.8744H186.926L186.606 44.1393C185.679 45.4196 184.246 46.1608 182.393 46.1608C178.703 46.1608 176.293 43.4318 176.293 39.4393C176.293 35.4468 178.686 32.7178 182.41 32.7178C185.51 32.7178 187.6 34.554 188.021 37.2156H186.454C186.117 35.2952 184.432 34.116 182.41 34.116C179.663 34.116 177.894 36.1712 177.894 39.4393C177.894 42.7074 179.68 44.7794 182.41 44.7794C184.803 44.7794 186.808 43.0949 186.808 40.6353H182.696V39.2708H188.173Z" fill="white"/>
<path d="M118.933 52.1748V65.0451H117.097L112.833 58.4078C111.94 57.0096 110.862 55.3081 110.154 54.0615C110.205 56.5884 110.205 58.9637 110.205 60.6988V65.0451H108.705V52.1748H110.559L114.822 58.8121C115.698 60.1935 116.793 61.9117 117.484 63.1583C117.434 60.6315 117.434 58.2393 117.434 56.5042V52.1748H118.933Z" fill="white"/>
<path d="M129.33 60.8843H122.253C122.388 62.9732 123.5 63.9334 125.117 63.9334C126.432 63.9334 127.274 63.2428 127.595 62.1983H129.094C128.639 63.9503 127.308 65.2643 125.084 65.2643C122.539 65.2643 120.753 63.3944 120.753 60.379C120.753 57.3635 122.455 55.4937 125.05 55.4937C127.645 55.4937 129.33 57.7005 129.33 60.379V60.8843ZM122.287 59.5872H127.78C127.628 58.0542 126.701 56.8245 125.05 56.8245C123.399 56.8245 122.522 57.7342 122.287 59.5872Z" fill="white"/>
<path d="M132.667 56.9759V63.0404C132.667 63.5289 132.902 63.8322 133.745 63.8322H134.588V65.0451L133.56 65.0956C132.11 65.0956 131.234 64.5902 131.234 63.1583V56.9759H129.684V55.7124H131.234V53.0845H132.667V55.7124H134.588V56.9759H132.667Z" fill="white"/>
<path d="M149.012 55.7129L145.894 65.0455H144.378L143.013 60.7161C142.693 59.6885 142.356 58.6104 142.069 57.5659C141.766 58.6104 141.446 59.6885 141.109 60.7161L139.761 65.0455H138.244L135.127 55.7129H136.677L138.008 59.9244C138.362 61.0699 138.699 62.1817 139.019 63.3272C139.323 62.1817 139.643 61.0699 140.014 59.9244L141.311 55.7129H142.828L144.125 59.9244C144.479 61.053 144.816 62.1649 145.136 63.2935C145.456 62.1649 145.793 61.053 146.13 59.9244L147.462 55.7129H149.012Z" fill="white"/>
<path d="M149.197 60.379C149.197 57.3972 151.085 55.4937 153.713 55.4937C156.342 55.4937 158.229 57.3972 158.229 60.379C158.229 63.3607 156.325 65.2643 153.713 65.2643C151.101 65.2643 149.197 63.3607 149.197 60.379ZM156.713 60.379C156.713 58.1216 155.516 56.8076 153.713 56.8076C151.91 56.8076 150.714 58.1216 150.714 60.379C150.714 62.6363 151.91 63.9503 153.713 63.9503C155.516 63.9503 156.713 62.6363 156.713 60.379Z" fill="white"/>
<path d="M164.801 55.5949V56.9763H164.447C162.576 56.9763 161.397 57.9196 161.397 59.7222V65.0455H159.948V55.7128H161.313V57.3637C161.591 56.8118 162.021 56.3507 162.552 56.0345C163.084 55.7182 163.694 55.5599 164.312 55.5781L164.801 55.5949Z" fill="white"/>
<path d="M169.266 60.0419L167.615 61.5917V65.0451H166.166V52.1748H167.615V59.8902L171.929 55.7124H173.85L170.294 59.0816L174.102 65.0451H172.417L169.266 60.0419Z" fill="white"/>
<path d="M125.101 71.3457L121.545 84.1991H118.799L117.417 78.859C117.063 77.3765 116.676 75.8267 116.372 74.2937C116.069 75.8267 115.698 77.3765 115.327 78.859L113.946 84.1991H111.216L107.644 71.3457H110.188L111.536 76.5174C111.924 78.1178 112.362 79.7855 112.699 81.4196C113.053 79.7855 113.423 78.1178 113.811 76.5006L115.125 71.3457H117.636L118.95 76.5006C119.355 78.1178 119.709 79.8192 120.046 81.4364C120.4 79.8192 120.821 78.1178 121.208 76.5174L122.573 71.3457H125.101Z" fill="white"/>
<path d="M125.842 74.8836H128.117V84.1994H125.842V74.8836ZM125.859 71.5312H128.1V73.6707H125.859V71.5312Z" fill="white"/>
<path d="M138.345 78.0164V84.1989H136.071V78.4039C136.071 77.2078 135.481 76.6351 134.318 76.6351C133.155 76.6351 132.245 77.3258 132.245 78.9766V84.1989H129.971V74.8831H132.161V76.2139C132.481 75.735 132.915 75.3428 133.424 75.0723C133.932 74.8019 134.5 74.6616 135.076 74.6641C137.031 74.6641 138.345 75.7928 138.345 78.0164Z" fill="white"/>
<path d="M148.574 78.0164V84.1989H146.299V78.4039C146.299 77.2078 145.709 76.6351 144.546 76.6351C143.384 76.6351 142.474 77.3258 142.474 78.9766V84.1989H140.199V74.8831H142.39V76.2139C142.71 75.735 143.143 75.3428 143.652 75.0723C144.161 74.8019 144.729 74.6616 145.305 74.6641C147.259 74.6641 148.574 75.7928 148.574 78.0164Z" fill="white"/>
<path d="M159.223 80.2401H152.247C152.416 81.9078 153.343 82.649 154.674 82.649C155.752 82.649 156.46 82.1436 156.797 81.3182H158.988C158.516 83.2049 156.898 84.4178 154.657 84.4178C151.91 84.4178 150.006 82.5143 150.006 79.5325C150.006 76.5508 151.843 74.6641 154.606 74.6641C157.37 74.6641 159.223 76.7361 159.223 79.701V80.2401ZM152.264 78.6565H156.949C156.763 77.3426 155.954 76.4329 154.589 76.4329C153.225 76.4329 152.483 77.1236 152.264 78.6565Z" fill="white"/>
<path d="M166.233 74.7651V76.8708H165.66C163.975 76.8708 162.964 77.6962 162.964 79.4651V84.1988H160.689V74.883H162.897V76.5339C163.335 75.4894 164.228 74.7314 165.677 74.7314C165.863 74.7258 166.049 74.7371 166.233 74.7651Z" fill="white"/>
<path d="M180.624 82.1434V84.1986H171.255L171.305 83.2384C171.406 81.537 171.76 79.4818 174.692 78.1678L175.956 77.5108C177.422 76.8033 178.012 76.1463 178.012 75.0176C178.012 73.889 177.253 73.114 175.905 73.114C174.557 73.114 173.681 73.8047 173.681 75.4556H171.322C171.305 72.7603 172.855 71.042 175.973 71.042C178.77 71.042 180.472 72.6592 180.472 74.8492C180.472 77.0391 179.343 78.1173 177.085 79.2291L175.889 79.8692C174.675 80.5094 174.069 81.0316 173.984 82.1434H180.624Z" fill="white"/>
<path d="M181.651 77.7635C181.651 73.5015 183.387 71.042 186.808 71.042C190.228 71.042 191.964 73.5015 191.964 77.7635C191.964 82.0255 190.245 84.485 186.808 84.485C183.37 84.485 181.651 82.0255 181.651 77.7635ZM189.42 77.7635C189.42 74.4954 188.476 73.114 186.808 73.114C185.14 73.114 184.196 74.4954 184.196 77.7635C184.196 81.0316 185.14 82.4298 186.808 82.4298C188.476 82.4298 189.42 81.0316 189.42 77.7635Z" fill="white"/>
<path d="M202.361 82.1434V84.1986H192.992L193.059 83.2384C193.144 81.537 193.497 79.4818 196.429 78.1678L197.693 77.5108C199.159 76.8033 199.766 76.1463 199.766 75.0176C199.766 73.889 198.991 73.114 197.643 73.114C196.295 73.114 195.418 73.8047 195.418 75.4556H193.076C193.059 72.7603 194.593 71.042 197.71 71.042C200.524 71.042 202.209 72.6592 202.209 74.8492C202.209 77.0391 201.08 78.1173 198.822 79.2291L197.626 79.8692C196.413 80.5094 195.823 81.0316 195.722 82.1434H202.361Z" fill="white"/>
<path d="M209 84.1989H206.557V75.5232H203.591V73.805H203.877C205.546 73.7039 206.658 73.1985 207.062 71.3623H209V84.1989Z" fill="white"/>
<path opacity="0.6" d="M-6.52647e-05 36.1306L35.1841 97.0542L96.119 61.8833L60.9348 0.959787L-6.52647e-05 36.1306Z" fill="white"/>
<path opacity="0.8" d="M60.9352 97.0598L96.1194 36.1362L35.1845 0.965363L0.000340817 61.8889L60.9352 97.0598Z" fill="white"/>
<path d="M83.2437 13.834H12.8754V84.1757H83.2437V13.834Z" fill="white"/>
<path d="M28.1084 54.3985V24.6655H37.1403V54.4659C37.1403 61.9624 41.2182 65.5 48.0596 65.5C54.9009 65.5 58.9788 61.9624 58.9788 54.4659V24.6655H68.0107V54.3985C68.0107 66.7803 60.31 73.3333 48.0596 73.3333C36.0619 73.3333 28.1084 66.7803 28.1084 54.3985Z" fill="#141424"/>
</svg>