<svg xmlns="http://www.w3.org/2000/svg" width="90" height="90" viewBox="0 0 90 90"><g fill="none" fill-rule="evenodd"><path fill="#F9E4B7" d="M27.077 44.485l-16.53 16.53c-4.686 4.686-4.686 12.284 0 16.97 4.687 4.687 12.285 4.687 16.971 0l16.53-16.53L60.95 78.359c4.686 4.686 12.284 4.686 16.97 0 4.687-4.686 4.687-12.284 0-16.97L61.018 44.484l16.03-16.03c4.686-4.685 4.686-12.283 0-16.97-4.687-4.686-12.285-4.686-16.97 0l-16.03 16.03-15.03-15.03c-4.686-4.686-12.284-4.686-16.97 0-4.687 4.687-4.687 12.285 0 16.97l15.03 15.03z"/><circle cx="18.562" cy="70" r="12" fill="#FFD67C" transform="matrix(-1 0 0 1 37.125 0)"/></g></svg>