<svg width="33" height="33" viewBox="0 0 33 33" fill="none" xmlns="http://www.w3.org/2000/svg">
<path d="M16.5 21.7749C17.7524 21.7749 18.7688 22.7913 18.7688 24.0437C18.7688 25.296 17.7524 26.3124 16.5 26.3124C15.2477 26.3124 14.2313 25.296 14.2313 24.0437C14.2313 22.7913 15.2477 21.7749 16.5 21.7749Z" fill="#FF9569"/>
<path fill-rule="evenodd" clip-rule="evenodd" d="M16.5006 6.8252C21.6494 6.8252 26.5111 9.14939 29.8414 13.2023C30.4607 13.956 30.3654 15.0807 29.6275 15.7144C29.3011 15.9949 28.9037 16.1329 28.5074 16.1329C28.0101 16.1329 27.5162 15.9165 27.1723 15.4968C24.5078 12.2524 20.6175 10.3918 16.5005 10.3918C12.3836 10.3918 8.4933 12.2524 5.82769 15.4968C5.48256 15.9177 4.98874 16.1329 4.49261 16.1329C4.09633 16.1329 3.69894 15.9961 3.37241 15.7144C2.63457 15.0807 2.53932 13.9549 3.15859 13.2023C6.49005 9.14945 11.3518 6.8252 16.5006 6.8252Z" fill="#82C6FF"/>
<path fill-rule="evenodd" clip-rule="evenodd" d="M16.7115 14.0176C19.82 14.0176 22.7545 15.4148 24.7621 17.8507C25.385 18.6059 25.2892 19.7327 24.5471 20.3676C24.2187 20.6486 23.8191 20.7868 23.4205 20.7868C22.9204 20.7868 22.4237 20.5701 22.0778 20.1496C20.7374 18.5236 18.7812 17.5909 16.7115 17.5909C14.6419 17.5909 12.6857 18.5236 11.3453 20.1496C10.9982 20.5713 10.5016 20.7868 10.0025 20.7868C9.60401 20.7868 9.20436 20.6498 8.87602 20.3676C8.13392 19.7326 8.03813 18.6058 8.66098 17.8507C10.6687 15.4148 13.6031 14.0176 16.7115 14.0176Z" fill="#FFD67C"/>
</svg>
